ply
format ascii 1.0
element vertex 24
property double x
property double y
property double z
element face 52
property list uchar int vertex_indices
property uchar red
end_header
-2.5 1.5 1
-2.5 -1.5 1
2.5 -1.5 1
2.5 1.5 1
-1.60000000000000009 -0.5 0.100000000000000006
-0.5 -0.5 3.10000000000000009
-0.5 0.5 3.10000000000000009
-1.60000000000000009 0.5 0.100000000000000006
0.5 -0.5 3.10000000000000009
1.60000000000000009 -0.5 0.100000000000000006
1.60000000000000009 0.5 0.100000000000000006
0.5 0.5 3.10000000000000009
-2.5 1.5 -1
-2.5 -1.5 -1
2.5 -1.5 -1
2.5 1.5 -1
-1.60000000000000009 -0.5 -0.100000000000000006
-0.5 -0.5 -3.10000000000000009
-0.5 0.5 -3.10000000000000009
-1.60000000000000009 0.5 -0.100000000000000006
0.5 -0.5 -3.10000000000000009
1.60000000000000009 -0.5 -0.100000000000000006
1.60000000000000009 0.5 -0.100000000000000006
0.5 0.5 -3.10000000000000009
3 0 6 3 0
3 11 6 8 0
3 4 1 5 0
3 6 0 7 0
3 8 2 9 0
3 6 11 3 0
3 1 4 0 0
3 3 11 10 0
3 8 6 5 0
3 8 5 1 0
3 3 10 9 0
3 2 8 1 0
3 16 12 19 0
3 12 16 13 0
3 7 0 4 0
3 3 9 2 0
3 19 12 18 0
3 18 12 15 0
3 13 16 17 0
3 13 17 20 0
3 13 20 14 0
3 14 20 21 0
3 14 21 15 0
3 15 21 22 0
3 15 22 23 0
3 20 17 18 0
3 18 15 23 0
3 20 18 23 0
3 12 13 0 0
3 0 13 1 0
3 2 1 14 0
3 3 2 14 0
3 13 14 1 0
3 3 14 15 0
3 0 3 12 0
3 15 12 3 0
3 4 5 17 0
3 4 17 16 0
3 5 6 17 0
3 18 17 6 0
3 19 18 6 0
3 6 7 19 0
3 7 4 19 0
3 16 19 4 0
3 8 9 21 0
3 8 21 20 0
3 9 10 21 0
3 22 21 10 0
3 23 22 10 0
3 10 11 23 0
3 11 8 23 0
3 20 23 8 0
