ply
format ascii 1.0
element vertex 102
property double x
property double y
property double z
element face 200
property list uchar int vertex_indices
property uchar red
end_header
-0.0694439932703971863 0.305121153593063354 -0.00361913954839110374
-0.144883140921592712 0.380384683609008789 0.0802042856812477112
0.0148947667330503464 0.326721251010894775 0.0527354106307029724
-0.0351335406303405762 0.457567572593688965 -0.0628612414002418518
0.0474522709846496582 0.30328032374382019 0.0783848240971565247
-0.0349488444626331329 0.395208150148391724 -0.0211394224315881729
-0.0156252011656761169 0.292531192302703857 0.0985719338059425354
-0.0686710923910140991 0.442679077386856079 -0.0147949941456317902
-0.215804815292358398 0.263592362403869629 0.0207526069134473801
0.0415220260620117188 0.0927919000387191772 0.104839175939559937
0.0796003788709640503 0.219876706600189209 0.106485843658447266
-0.13737507164478302 0.324362576007843018 0.088517405092716217
-0.150646120309829712 0.355663776397705078 -0.0119379768148064613
-0.185728371143341064 0.353040009737014771 -0.0183653160929679871
-0.223957180976867676 0.335521578788757324 0.0478230118751525879
-0.128492534160614014 0.379545271396636963 0.0314613617956638336
-0.184510976076126099 0.277295380830764771 -0.0210988018661737442
0.0366045981645584106 0.252075016498565674 -0.0526853390038013458
-0.0958000347018241882 0.117296330630779266 0.0964816287159919739
-0.224898442625999451 0.373897641897201538 0.042451024055480957
-0.207665964961051941 0.194880902767181396 -0.00673230038955807686
0.119582012295722961 0.192687869071960449 0.0381217971444129944
-0.147805139422416687 0.378243207931518555 -0.00194090569857507944
-0.176049366593360901 0.408131897449493408 -0.111812055110931396
-0.0432104207575321198 0.124673455953598022 0.119788914918899536
-0.0226508546620607376 0.235702797770500183 0.136587202548980713
-0.106826514005661011 0.318930923938751221 0.0348990224301815033
0.0358477756381034851 0.246703505516052246 0.115782693028450012
0.0101095074787735939 0.134931698441505432 0.13547903299331665
0.123080536723136902 0.11542925238609314 0.0709534585475921631
-0.127127870917320251 0.12552759051322937 0.0796854272484779358
-0.0818899869918823242 0.245643198490142822 0.10476173460483551
0.04820270836353302 0.142702400684356689 0.117611110210418701
0.0797429829835891724 0.291074514389038086 -0.00029743634513579309
-0.0662057548761367798 0.135557577013969421 0.0885608494281768799
-0.013759843073785305 0.1737557053565979 0.143468171358108521
-0.00154677510727196932 0.317513495683670044 -0.0110577726736664772
-0.214867234230041504 0.197407722473144531 0.0506584793329238892
-0.234464541077613831 0.295002788305282593 0.0309086255729198456
-0.116199694573879242 0.164568811655044556 0.0976925194263458252
-0.120368286967277527 0.348705500364303589 0.00822165422141551971
-0.196233287453651428 0.427705883979797363 -0.114987827837467194
-0.138770416378974915 0.24865354597568512 -0.0512471720576286316
-0.201023086905479431 0.309123069047927856 -0.0156132979318499565
0.00545563409104943275 0.192689105868339539 -0.0885279625654220581
-0.228607073426246643 0.285024344921112061 0.106805160641670227
-0.0564607270061969757 0.201387569308280945 0.138183802366256714
-0.127191692590713501 0.31626051664352417 -0.0137280579656362534
-0.178590908646583557 0.170625090599060059 0.0776091068983078003
-0.127157330513000488 0.223430708050727844 0.113035954535007477
-0.168346166610717773 0.283659696578979492 0.132064938545227051
-0.0690476000308990479 0.302664279937744141 0.0614755973219871521
-0.192539379000663757 0.264664947986602783 0.0835637748241424561
-0.149857029318809509 0.42261052131652832 -0.139982894062995911
-0.173537269234657288 0.370624691247940063 -0.12023046612739563
-0.0775076150894165039 0.219992056488990784 0.107602484524250031
-0.0238043088465929031 0.42007020115852356 -0.0612105205655097961
0.0730935931205749512 0.28503909707069397 0.079365856945514679
-0.137465894222259521 0.281113237142562866 0.0876436308026313782
-0.0711905583739280701 0.0942181646823883057 0.137281805276870728
-0.144328445196151733 0.0868110954761505127 0.118108868598937988
0.0952313467860221863 0.141404002904891968 0.0807684361934661865
0.148580729961395264 0.175605118274688721 0.0244845505803823471
0.0248725954443216324 0.207357943058013916 0.137445032596588135
-0.179742038249969482 0.382975310087203979 0.00384354707784950733
0.0725345984101295471 0.0856830403208732605 0.00736584747210144997
-0.176091089844703674 0.447347372770309448 -0.137376308441162109
0.104585878551006317 0.155958712100982666 -0.0122063057497143745
0.147565826773643494 0.136520937085151672 0.0161560922861099243
0.000142493765451945364 0.280306965112686157 -0.0501770451664924622
-0.0987109765410423279 0.0840322002768516541 -0.0771531984210014343
0.0362826995551586151 0.231502056121826172 -0.0684030726552009583
0.119675524532794952 0.133819848299026489 -0.0177132990211248398
0.0920096784830093384 0.234843745827674866 -0.0364011265337467194
0.0538180544972419739 0.125040397047996521 -0.0632001906633377075
-0.0788051486015319824 0.275594472885131836 -0.0447315461933612823
-0.172610729932785034 0.209465056657791138 0.109588965773582458
0.13402479887008667 0.169577062129974365 0.0662817209959030151
-0.155804082751274109 0.116071820259094238 0.0935753509402275085
-0.153559520840644836 0.118589811027050018 0.0120185306295752525
-0.192505016922950745 0.332355380058288574 0.133088439702987671
-0.118683323264122009 0.129582300782203674 0.0395582467317581177
-0.115998558700084686 0.113300412893295288 -0.0255647413432598114
-0.185392111539840698 0.0838338807225227356 -0.00158896658103913069
-0.079734019935131073 0.129501298069953918 -0.0227538179606199265
-0.149006575345993042 0.140949934720993042 0.0063851475715637207
-0.125193789601325989 0.164149105548858643 -0.0319534726440906525
0.0335230715572834015 0.085997454822063446 -0.0518936663866043091
-0.0737600848078727722 0.215221896767616272 -0.0926321148872375488
-0.0591618157923221588 0.115412689745426178 -0.0711361914873123169
-0.0472983792424201965 0.168007463216781616 -0.0955666229128837585
-0.0897917449474334717 0.216177895665168762 -0.0581966154277324677
-0.157257109880447388 0.190931737422943115 -0.0487577766180038452
-0.103205636143684387 0.0833978578448295593 -0.0440259017050266266
0.0228915102779865265 0.0913754552602767944 -0.0298718791455030441
-0.0924205482006072998 0.0951226204633712769 -0.0384851731359958649
-0.00958795566111803055 0.0901322886347770691 0.0339551754295825958
0.0557095520198345184 0.0876972600817680359 0.0684231966733932495
-0.0700620114803314209 0.0900092050433158875 0.0345941819250583649
-0.159766748547554016 0.0826703682541847229 0.0525562353432178497
0.0164522174745798111 0.0972633585333824158 0.0829374045133590698
-0.0862496495246887207 0.0862249806523323059 0.105495482683181763
3 66 53 54 0
3 66 54 23 0
3 41 66 23 0
3 12 53 54 0
3 88 90 44 0
3 13 54 23 0
3 88 44 71 0
3 74 44 90 0
3 89 74 90 0
3 64 41 66 0
3 88 89 90 0
3 88 17 91 0
3 89 70 87 0
3 88 17 71 0
3 74 44 71 0
3 93 70 87 0
3 89 82 70 0
3 88 89 91 0
3 89 74 87 0
3 17 91 69 0
3 73 74 71 0
3 91 75 69 0
3 56 3 5 0
3 12 13 54 0
3 41 13 23 0
3 89 91 84 0
3 42 91 92 0
3 93 94 87 0
3 75 91 42 0
3 91 92 86 0
3 73 17 71 0
3 64 66 53 0
3 56 3 22 0
3 93 94 95 0
3 42 75 47 0
3 73 74 67 0
3 75 36 69 0
3 82 93 70 0
3 89 82 84 0
3 16 42 92 0
3 73 69 17 0
3 16 42 47 0
3 91 84 86 0
3 16 92 20 0
3 82 84 86 0
3 73 69 33 0
3 3 5 15 0
3 82 83 93 0
3 64 12 53 0
3 92 85 86 0
3 20 85 92 0
3 56 40 22 0
3 64 41 13 0
3 65 94 87 0
3 16 43 13 0
3 16 13 47 0
3 65 74 67 0
3 0 75 47 0
3 65 74 87 0
3 40 56 5 0
3 98 94 95 0
3 3 15 7 0
3 12 13 47 0
3 33 36 69 0
3 72 65 67 0
3 82 83 79 0
3 16 8 43 0
3 73 67 21 0
3 82 85 86 0
3 40 12 47 0
3 98 93 95 0
3 3 22 7 0
3 0 26 47 0
3 40 12 22 0
3 96 65 94 0
3 8 16 20 0
3 15 22 7 0
3 0 75 36 0
3 43 13 38 0
3 82 85 79 0
3 8 43 38 0
3 73 21 33 0
3 72 68 62 0
3 64 19 13 0
3 40 26 47 0
3 96 98 94 0
3 64 12 22 0
3 72 67 62 0
3 40 5 15 0
3 72 65 68 0
3 37 20 85 0
3 83 99 93 0
3 33 2 36 0
3 0 2 36 0
3 98 99 93 0
3 13 38 14 0
3 0 2 51 0
3 0 26 51 0
3 65 68 29 0
3 67 21 62 0
3 19 13 14 0
3 81 85 79 0
3 1 22 15 0
3 96 97 65 0
3 21 77 62 0
3 81 99 79 0
3 98 99 101 0
3 48 37 85 0
3 83 99 79 0
3 8 20 37 0
3 64 1 19 0
3 65 29 97 0
3 57 2 33 0
3 64 1 22 0
3 68 29 62 0
3 48 81 85 0
3 33 21 57 0
3 40 26 11 0
3 8 52 38 0
3 81 99 78 0
3 29 77 62 0
3 40 1 15 0
3 8 52 37 0
3 2 51 6 0
3 81 78 30 0
3 48 81 39 0
3 45 38 14 0
3 96 98 101 0
3 57 2 4 0
3 40 1 11 0
3 81 30 39 0
3 57 10 21 0
3 26 11 58 0
3 96 97 100 0
3 76 37 52 0
3 61 77 21 0
3 10 61 21 0
3 97 29 61 0
3 26 51 58 0
3 2 4 6 0
3 48 76 37 0
3 29 77 61 0
3 52 45 38 0
3 48 76 39 0
3 99 60 101 0
3 19 45 14 0
3 9 61 97 0
3 58 51 31 0
3 80 1 19 0
3 96 100 101 0
3 80 19 45 0
3 51 6 31 0
3 57 4 6 0
3 18 34 55 0
3 18 30 39 0
3 99 60 78 0
3 58 76 52 0
3 97 100 101 0
3 58 52 50 0
3 49 58 31 0
3 80 1 11 0
3 32 9 61 0
3 32 10 61 0
3 97 101 9 0
3 50 52 45 0
3 18 78 30 0
3 49 58 76 0
3 18 55 39 0
3 39 55 31 0
3 49 39 31 0
3 18 60 101 0
3 34 46 55 0
3 50 11 58 0
3 57 10 27 0
3 49 76 39 0
3 57 27 6 0
3 27 6 31 0
3 24 34 59 0
3 80 50 11 0
3 18 59 34 0
3 18 60 78 0
3 32 9 28 0
3 24 34 46 0
3 9 59 101 0
3 18 59 101 0
3 25 31 55 0
3 80 50 45 0
3 25 27 31 0
3 24 9 28 0
3 32 10 63 0
3 24 9 59 0
3 32 28 63 0
3 10 27 63 0
3 24 35 28 0
3 25 27 63 0
3 25 46 55 0
3 24 35 46 0
3 35 28 63 0
3 25 35 46 0
3 25 35 63 0
