ply
format ascii 1.0
element vertex 24
property double x
property double y
property double z
element face 52
property list uchar int vertex_indices
property uchar red
end_header
-2.260684682067855 0.857014649952512086 1.74716674110245207
-2.27488423072392898 -0.851402535080188372 1.74457244838137648
2.26978585507555319 -0.873038872549345868 1.73692024461737615
2.26388945575186495 0.86798141608407553 1.74708980835789873
-1.60392503502229511 -0.544893184340053516 0.00152859340005655881
-0.221353090957533638 -0.774891436624743246 2.95121754208190135
-0.246697818137685765 0.792182495202303549 2.94364112549782408
-1.61293127525979085 0.500806320921834636 -0.00175954637887983253
0.229693667094031162 -0.764548644913806807 2.95837062241765736
1.61504980741301463 -0.50480924154912854 -0.00154593905462258908
1.61111324639913911 0.554479184096986155 -0.00480298073870502867
0.225023455155925589 0.793654251064755067 2.94464737556596523
-2.26477692355513582 0.862371689359482829 -1.74875904582632802
-2.26071832843287179 -0.856882162372905709 -1.74921146321068655
2.29369978580993239 -0.854934288488411687 -1.74285176670021724
2.25949043997389376 0.877170635402277687 -1.74136485871997881
-1.61376766754080481 -0.500023627350385191 0.00401071880904475039
-0.239825917282177864 -0.776866389265325252 -2.94952145630199958
-0.224590750534496814 0.792830654597977635 -2.9485034410119586
-1.60565205962251967 0.541589462814091704 0.00198794538718377774
0.234410405860346921 -0.778849437629118291 -2.9502313059852221
1.61820725920979291 -0.564904689333325383 0.0118011155382190605
1.61162293054104855 0.4958290894080431 0.00701095993481552684
0.246164373527042346 0.784840384159017912 -2.95349037319021468
3 0 6 3 0
3 11 6 8 0
3 4 1 5 0
3 6 0 7 0
3 8 2 9 0
3 6 11 3 0
3 1 4 0 0
3 3 11 10 0
3 8 6 5 0
3 8 5 1 0
3 3 10 9 0
3 2 8 1 0
3 16 12 19 0
3 12 16 13 0
3 7 0 4 0
3 3 9 2 0
3 19 12 18 0
3 18 12 15 0
3 13 16 17 0
3 13 17 20 0
3 13 20 14 0
3 14 20 21 0
3 14 21 15 0
3 15 21 22 0
3 15 22 23 0
3 20 17 18 0
3 18 15 23 0
3 20 18 23 0
3 12 13 0 0
3 0 13 1 0
3 2 1 14 0
3 3 2 14 0
3 13 14 1 0
3 3 14 15 0
3 0 3 12 0
3 15 12 3 0
3 4 5 17 0
3 4 17 16 0
3 5 6 17 0
3 18 17 6 0
3 19 18 6 0
3 6 7 19 0
3 7 4 19 0
3 16 19 4 0
3 8 9 21 0
3 8 21 20 0
3 9 10 21 0
3 22 21 10 0
3 23 22 10 0
3 10 11 23 0
3 11 8 23 0
3 20 23 8 0
