ply
format ascii 1.0
element vertex 96
property double x
property double y
property double z
element face 150
property list uchar int vertex_indices
property uchar red
end_header
0 0 0.100000000000000006
0.200000000000000011 0 0.097979589711327128
0.061803398874989493 0.190211303259030712 0.0979795897113271419
-0.161803398874989485 0.117557050458494655 0.0979795897113271419
-0.161803398874989512 -0.117557050458494614 0.0979795897113271419
0.0618033988749894514 -0.19021130325903074 0.0979795897113271419
0.400000000000000022 0 0.0916515138991167988
0.323606797749979025 0.235114100916989255 0.0916515138991167988
0.123606797749978986 0.380422606518061424 0.0916515138991167988
-0.123606797749978944 0.380422606518061479 0.0916515138991168127
-0.323606797749978969 0.23511410091698931 0.0916515138991167988
-0.400000000000000022 4.89858719658941308e-17 0.0916515138991167988
-0.323606797749979025 -0.235114100916989227 0.0916515138991167988
-0.123606797749979028 -0.380422606518061424 0.0916515138991167988
0.123606797749978903 -0.380422606518061479 0.0916515138991168127
0.323606797749978969 -0.23511410091698931 0.0916515138991167988
0.599999999999999978 0 0.0800000000000000155
0.570633909777092052 0.185410196624968437 0.0800000000000000155
0.485410196624968426 0.352671151375483882 0.0800000000000000155
0.352671151375483938 0.485410196624968371 0.0800000000000000155
0.185410196624968465 0.570633909777092052 0.0800000000000000155
3.6739403974420595e-17 0.599999999999999978 0.0800000000000000155
-0.18541019662496841 0.570633909777092163 0.0800000000000000155
-0.352671151375483827 0.485410196624968426 0.0800000000000000155
-0.485410196624968371 0.352671151375483938 0.0800000000000000155
-0.570633909777092052 0.185410196624968493 0.0800000000000000155
-0.599999999999999978 7.347880794884119e-17 0.0800000000000000155
-0.570633909777092163 -0.185410196624968354 0.0800000000000000155
-0.485410196624968426 -0.352671151375483827 0.0800000000000000155
-0.352671151375483938 -0.485410196624968371 0.0800000000000000155
-0.185410196624968521 -0.570633909777092052 0.0800000000000000155
-1.10218211923261779e-16 -0.599999999999999978 0.0800000000000000155
0.185410196624968326 -0.570633909777092163 0.0800000000000000155
0.352671151375483716 -0.485410196624968537 0.0800000000000000155
0.485410196624968371 -0.352671151375483938 0.0800000000000000155
0.570633909777092052 -0.185410196624968576 0.0800000000000000155
0.790150672476110261 0.125147572032184712 0.0599999999999999978
0.712805219350694408 0.363192399791637421 0.0599999999999999908
0.565685424949238125 0.565685424949238014 0.0599999999999999978
0.363192399791637477 0.712805219350694297 0.0599999999999999978
0.12514757203218474 0.790150672476110261 0.0599999999999999908
-0.125147572032184656 0.790150672476110261 0.0599999999999999978
-0.363192399791637421 0.712805219350694408 0.0599999999999999908
-0.565685424949238014 0.565685424949238125 0.0599999999999999908
-0.712805219350694297 0.363192399791637532 0.0599999999999999908
-0.79015067247611015 0.125147572032184795 0.0599999999999999978
-0.790150672476110261 -0.125147572032184601 0.0599999999999999978
-0.712805219350694408 -0.363192399791637366 0.0599999999999999908
-0.565685424949238125 -0.565685424949238014 0.0599999999999999978
-0.363192399791637532 -0.712805219350694297 0.0599999999999999908
-0.125147572032184851 -0.79015067247611015 0.0599999999999999978
0.125147572032184545 -0.790150672476110261 0.0599999999999999978
0.36319239979163731 -0.712805219350694408 0.0599999999999999908
0.565685424949238014 -0.565685424949238125 0.0599999999999999908
0.712805219350694297 -0.363192399791637588 0.0599999999999999908
0.79015067247611015 -0.125147572032184906 0.0599999999999999978
0.989999999999999991 0 0.014106735979665894
0.977811457189186384 0.154870120389828558 0.0141067359796658697
0.941545951132201964 0.305926824431197897 0.0141067359796659391
0.882096458946484252 0.449450594742151266 0.0141067359796658558
0.800926824431198003 0.581907399769548417 0.0141067359796658558
0.700035713374682067 0.700035713374681956 0.014106735979665894
0.581907399769548528 0.800926824431197892 0.0141067359796658558
0.449450594742151321 0.882096458946484141 0.014106735979665894
0.305926824431197952 0.941545951132201964 0.0141067359796659356
0.154870120389828614 0.977811457189186384 0.0141067359796658558
6.06200165577939851e-17 0.989999999999999991 0.014106735979665894
-0.154870120389828503 0.977811457189186384 0.014106735979665894
-0.305926824431197841 0.941545951132202075 0.014106735979665894
-0.449450594742151266 0.882096458946484252 0.0141067359796658558
-0.581907399769548306 0.800926824431198003 0.014106735979665894
-0.700035713374681956 0.700035713374682067 0.0141067359796659131
-0.800926824431197892 0.581907399769548528 0.0141067359796658558
-0.882096458946484141 0.449450594742151377 0.0141067359796659061
-0.941545951132201964 0.305926824431198008 0.0141067359796659131
-0.977811457189186273 0.154870120389828669 0.0141067359796659356
-0.989999999999999991 1.2124003311558797e-16 0.014106735979665894
-0.977811457189186384 -0.154870120389828447 0.0141067359796658801
-0.941545951132202075 -0.305926824431197786 0.0141067359796658853
-0.882096458946484252 -0.44945059474215121 0.0141067359796658749
-0.800926824431198003 -0.581907399769548306 0.0141067359796659131
-0.700035713374682178 -0.700035713374681956 0.0141067359796658558
-0.581907399769548528 -0.800926824431197892 0.0141067359796658558
-0.449450594742151432 -0.882096458946484141 0.014106735979665894
-0.305926824431198063 -0.941545951132201964 0.014106735979665894
-0.154870120389828753 -0.977811457189186273 0.0141067359796659356
-1.81860049673381931e-16 -0.989999999999999991 0.014106735979665894
0.154870120389828364 -0.977811457189186384 0.014106735979665894
0.30592682443119773 -0.941545951132202075 0.014106735979665894
0.449450594742151155 -0.882096458946484363 0.0141067359796658159
0.581907399769548195 -0.800926824431198114 0.014106735979665894
0.700035713374681956 -0.700035713374682178 0.0141067359796658558
0.800926824431197892 -0.581907399769548528 0.0141067359796658558
0.882096458946484141 -0.449450594742151488 0.0141067359796658662
0.941545951132201964 -0.305926824431198119 0.0141067359796658923
0.977811457189186273 -0.154870120389828808 0.0141067359796659218
3 80 81 48 0
3 81 82 48 0
3 82 49 48 0
3 49 82 83 0
3 27 12 11 0
3 12 4 11 0
3 91 92 53 0
3 33 52 53 0
3 1 15 6 0
3 1 2 0 0
3 42 70 43 0
3 70 71 43 0
3 69 70 42 0
3 61 62 38 0
3 27 28 12 0
3 28 29 12 0
3 49 29 48 0
3 29 28 48 0
3 50 51 31 0
3 50 85 86 0
3 51 50 86 0
3 71 72 43 0
3 72 44 43 0
3 87 51 86 0
3 52 90 53 0
3 90 91 53 0
3 89 90 52 0
3 26 27 11 0
3 47 28 27 0
3 47 80 48 0
3 28 47 48 0
3 4 5 0 0
3 5 1 0 0
3 1 5 15 0
3 37 60 38 0
3 60 61 38 0
3 18 37 38 0
3 15 35 6 0
3 68 69 42 0
3 41 68 42 0
3 68 41 67 0
3 40 41 21 0
3 67 41 66 0
3 41 40 66 0
3 29 13 12 0
3 13 4 12 0
3 13 5 4 0
3 84 50 49 0
3 84 49 83 0
3 50 84 85 0
3 44 74 45 0
3 88 89 52 0
3 51 88 52 0
3 87 88 51 0
3 46 26 45 0
3 46 45 76 0
3 77 46 76 0
3 26 46 27 0
3 46 47 27 0
3 46 77 78 0
3 47 46 78 0
3 79 47 78 0
3 47 79 80 0
3 14 13 31 0
3 13 14 5 0
3 14 33 15 0
3 5 14 15 0
3 58 37 36 0
3 19 18 38 0
3 2 7 8 0
3 7 19 8 0
3 19 7 18 0
3 1 7 2 0
3 7 1 6 0
3 37 17 36 0
3 18 17 37 0
3 17 7 6 0
3 7 17 18 0
3 92 54 53 0
3 54 92 93 0
3 17 16 36 0
3 35 16 6 0
3 16 17 6 0
3 40 65 66 0
3 65 40 64 0
3 44 24 43 0
3 23 24 10 0
3 23 42 43 0
3 24 23 43 0
3 2 3 0 0
3 3 4 0 0
3 3 10 11 0
3 4 3 11 0
3 13 30 31 0
3 30 13 29 0
3 30 29 49 0
3 50 30 49 0
3 30 50 31 0
3 45 75 76 0
3 74 75 45 0
3 72 73 44 0
3 73 74 44 0
3 32 14 31 0
3 14 32 33 0
3 32 51 52 0
3 51 32 31 0
3 33 32 52 0
3 59 60 37 0
3 58 59 37 0
3 57 36 56 0
3 57 58 36 0
3 40 39 64 0
3 62 39 38 0
3 39 19 38 0
3 94 54 93 0
3 54 55 35 0
3 55 16 35 0
3 55 94 95 0
3 94 55 54 0
3 16 55 36 0
3 36 55 56 0
3 55 95 56 0
3 34 33 53 0
3 34 54 35 0
3 54 34 53 0
3 33 34 15 0
3 34 35 15 0
3 26 25 45 0
3 25 44 45 0
3 25 24 44 0
3 25 26 11 0
3 10 25 11 0
3 24 25 10 0
3 41 22 21 0
3 22 41 42 0
3 23 22 42 0
3 39 63 64 0
3 63 39 62 0
3 20 40 21 0
3 39 20 19 0
3 20 39 40 0
3 20 21 8 0
3 19 20 8 0
3 9 23 10 0
3 9 22 23 0
3 3 9 10 0
3 9 3 2 0
3 9 2 8 0
3 21 9 8 0
3 22 9 21 0
