ply
format ascii 1.0
element vertex 26
property double x
property double y
property double z
element face 40
property list uchar int vertex_indices
property uchar red
end_header
0.188405036907688894 -0.579848089350954554 0.485806052036069191
0.457175806717502575 -0.332142467832989896 0.485228825425672583
0.0725083217877751096 -0.223173169984111575 0.488717785358308843
-0.493247132239116204 -0.358367710054964206 0.484621768935747543
-0.17463279671905807 -0.537456838124776737 0.48743341115570521
-0.189849225572890801 -0.137929239086420213 0.488438016600784397
-0.49324723355791783 0.358367690931953642 0.484623656284057458
-0.565051441577574143 -1.0419462570207435e-08 0.481095880793482811
-0.189849224725625015 0.13792930044101373 0.488436430794764564
0.188405066181839304 0.57984804698673631 0.485790324131816997
-0.174632773078478354 0.537456864162975556 0.487418208517947538
0.0725083279115844581 0.223173225385581098 0.488713090601401168
0.609605153790592769 -7.73503852547163546e-08 0.478731719639033215
0.457175849301431014 0.332142413121379709 0.485224711516689888
0.234609911353205941 -1.57638916495606719e-08 0.484794640392554377
-7.40105082842220621e-06 3.50552515404581029e-08 0.489316934723138586
1.00254122925060574 0.325785464546158365 0.474199125825453038
0.619106397439945777 0.852318536869496324 0.457278472766502853
-1.26149182636712473e-05 1.05420254101245403 0.47920842364385563
-0.619043036739175045 0.852225110822209309 0.455703221203544895
-1.00254267549162579 0.325785555745885358 0.474008321840224178
-1.00254198923381033 -0.325785828994192006 0.473977629979549953
-0.619040564272127725 -0.852224136185255166 0.45567406318352649
-1.26901464294487128e-05 -1.05420273307679557 0.479236266853615422
0.619104813963524903 -0.85231828142637478 0.457267889040365028
1.00254080858478267 -0.325785920338209023 0.474184323384981898
3 0 1 2 0
3 3 4 5 0
3 8 6 7 0
3 9 10 11 0
3 12 13 14 0
3 11 14 15 0
3 11 13 14 0
3 9 11 13 0
3 8 11 15 0
3 8 10 11 0
3 8 10 6 0
3 8 5 15 0
3 8 5 7 0
3 3 5 7 0
3 2 5 15 0
3 2 4 5 0
3 0 2 4 0
3 2 14 15 0
3 1 2 14 0
3 1 12 14 0
3 16 12 13 0
3 16 17 13 0
3 17 13 9 0
3 9 18 10 0
3 10 18 19 0
3 10 19 6 0
3 20 6 7 0
3 20 21 7 0
3 3 21 7 0
3 3 4 22 0
3 4 22 23 0
3 0 4 23 0
3 24 1 0 0
3 24 25 1 0
3 25 12 1 0
3 17 18 9 0
3 19 20 6 0
3 3 21 22 0
3 24 0 23 0
3 16 25 12 0
