ply
format ascii 1.0
element vertex 181
property float x
property float y
property float z
element face 324
property list uchar int vertex_indices
property uchar red
end_header
0 0 0
3.33333325386047363 0 0
3.33333325386047363 3.33333325386047363 2.37037038803100586
0 3.33333325386047363 0
1.66666674613952637 1.66666674613952637 1.25925934314727783
6.66666650772094727 0 0
6.66666650772094727 3.33333325386047363 3.25925922393798828
5 1.66666674613952637 2.29629635810852051
10 0 0
10 3.33333325386047363 3.8518519401550293
8.33333301544189453 1.66666674613952637 3.03703689575195312
13.3333330154418945 0 0
13.3333330154418945 3.33333325386047363 4.1481480598449707
11.6666669845581055 1.66666674613952637 3.48148155212402344
16.6666679382324219 0 0
16.6666679382324219 3.33333325386047363 4.1481480598449707
15 1.66666674613952637 3.62962961196899414
20 0 0
20 3.33333325386047363 3.8518519401550293
18.3333320617675781 1.66666674613952637 3.48148155212402344
23.3333320617675781 0 0
23.3333320617675781 3.33333325386047363 3.25925922393798828
21.6666679382324219 1.66666674613952637 3.03703689575195312
26.6666679382324219 0 0
26.6666679382324219 3.33333325386047363 2.37037038803100586
25 1.66666674613952637 2.29629635810852051
30 0 0
30 3.33333325386047363 0
28.3333320617675781 1.66666674613952637 1.25925934314727783
3.33333325386047363 6.66666650772094727 3.25925922393798828
0 6.66666650772094727 0
1.66666674613952637 5 2.29629635810852051
6.66666650772094727 6.66666650772094727 4.1481480598449707
5 5 3.33333325386047363
10 6.66666650772094727 4.74074077606201172
8.33333301544189453 5 4.07407426834106445
13.3333330154418945 6.66666650772094727 5.03703689575195312
11.6666669845581055 5 4.51851844787597656
16.6666679382324219 6.66666650772094727 5.03703689575195312
15 5 4.66666650772094727
20 6.66666650772094727 4.74074077606201172
18.3333320617675781 5 4.51851844787597656
23.3333320617675781 6.66666650772094727 4.1481480598449707
21.6666679382324219 5 4.07407426834106445
26.6666679382324219 6.66666650772094727 3.25925922393798828
25 5 3.33333325386047363
30 6.66666650772094727 0
28.3333320617675781 5 2.29629635810852051
3.33333325386047363 10 3.8518519401550293
0 10 0
1.66666674613952637 8.33333301544189453 3.03703689575195312
6.66666650772094727 10 4.74074077606201172
5 8.33333301544189453 4.07407426834106445
10 10 5.33333349227905273
8.33333301544189453 8.33333301544189453 4.81481456756591797
13.3333330154418945 10 5.62962961196899414
11.6666669845581055 8.33333301544189453 5.25925922393798828
16.6666679382324219 10 5.62962961196899414
15 8.33333301544189453 5.40740728378295898
20 10 5.33333349227905273
18.3333320617675781 8.33333301544189453 5.25925922393798828
23.3333320617675781 10 4.74074077606201172
21.6666679382324219 8.33333301544189453 4.81481456756591797
26.6666679382324219 10 3.8518519401550293
25 8.33333301544189453 4.07407426834106445
30 10 0
28.3333320617675781 8.33333301544189453 3.03703689575195312
3.33333325386047363 13.3333330154418945 4.1481480598449707
0 13.3333330154418945 0
1.66666674613952637 11.6666669845581055 3.48148155212402344
6.66666650772094727 13.3333330154418945 5.03703689575195312
5 11.6666669845581055 4.51851844787597656
10 13.3333330154418945 5.62962961196899414
8.33333301544189453 11.6666669845581055 5.25925922393798828
13.3333330154418945 13.3333330154418945 5.92592573165893555
11.6666669845581055 11.6666669845581055 5.70370388031005859
16.6666679382324219 13.3333330154418945 5.92592573165893555
15 11.6666669845581055 5.8518519401550293
20 13.3333330154418945 5.62962961196899414
18.3333320617675781 11.6666669845581055 5.70370388031005859
23.3333320617675781 13.3333330154418945 5.03703689575195312
21.6666679382324219 11.6666669845581055 5.25925922393798828
26.6666679382324219 13.3333330154418945 4.1481480598449707
25 11.6666669845581055 4.51851844787597656
30 13.3333330154418945 0
28.3333320617675781 11.6666669845581055 3.48148155212402344
3.33333325386047363 16.6666679382324219 4.1481480598449707
0 16.6666679382324219 0
1.66666674613952637 15 3.62962961196899414
6.66666650772094727 16.6666679382324219 5.03703689575195312
5 15 4.66666650772094727
10 16.6666679382324219 5.62962961196899414
8.33333301544189453 15 5.40740728378295898
13.3333330154418945 16.6666679382324219 5.92592573165893555
11.6666669845581055 15 5.8518519401550293
16.6666679382324219 16.6666679382324219 5.92592573165893555
15 15 6
20 16.6666679382324219 5.62962961196899414
18.3333320617675781 15 5.8518519401550293
23.3333320617675781 16.6666679382324219 5.03703689575195312
21.6666679382324219 15 5.40740728378295898
26.6666679382324219 16.6666679382324219 4.1481480598449707
25 15 4.66666650772094727
30 16.6666679382324219 0
28.3333320617675781 15 3.62962961196899414
3.33333325386047363 20 3.8518519401550293
0 20 0
1.66666674613952637 18.3333320617675781 3.48148155212402344
6.66666650772094727 20 4.74074077606201172
5 18.3333320617675781 4.51851844787597656
10 20 5.33333349227905273
8.33333301544189453 18.3333320617675781 5.25925922393798828
13.3333330154418945 20 5.62962961196899414
11.6666669845581055 18.3333320617675781 5.70370388031005859
16.6666679382324219 20 5.62962961196899414
15 18.3333320617675781 5.8518519401550293
20 20 5.33333349227905273
18.3333320617675781 18.3333320617675781 5.70370388031005859
23.3333320617675781 20 4.74074077606201172
21.6666679382324219 18.3333320617675781 5.25925922393798828
26.6666679382324219 20 3.8518519401550293
25 18.3333320617675781 4.51851844787597656
30 20 0
28.3333320617675781 18.3333320617675781 3.48148155212402344
3.33333325386047363 23.3333320617675781 3.25925922393798828
0 23.3333320617675781 0
1.66666674613952637 21.6666679382324219 3.03703689575195312
6.66666650772094727 23.3333320617675781 4.1481480598449707
5 21.6666679382324219 4.07407426834106445
10 23.3333320617675781 4.74074077606201172
8.33333301544189453 21.6666679382324219 4.81481456756591797
13.3333330154418945 23.3333320617675781 5.03703689575195312
11.6666669845581055 21.6666679382324219 5.25925922393798828
16.6666679382324219 23.3333320617675781 5.03703689575195312
15 21.6666679382324219 5.40740728378295898
20 23.3333320617675781 4.74074077606201172
18.3333320617675781 21.6666679382324219 5.25925922393798828
23.3333320617675781 23.3333320617675781 4.1481480598449707
21.6666679382324219 21.6666679382324219 4.81481456756591797
26.6666679382324219 23.3333320617675781 3.25925922393798828
25 21.6666679382324219 4.07407426834106445
30 23.3333320617675781 0
28.3333320617675781 21.6666679382324219 3.03703689575195312
3.33333325386047363 26.6666679382324219 2.37037038803100586
0 26.6666679382324219 0
1.66666674613952637 25 2.29629635810852051
6.66666650772094727 26.6666679382324219 3.25925922393798828
5 25 3.33333325386047363
10 26.6666679382324219 3.8518519401550293
8.33333301544189453 25 4.07407426834106445
13.3333330154418945 26.6666679382324219 4.1481480598449707
11.6666669845581055 25 4.51851844787597656
16.6666679382324219 26.6666679382324219 4.1481480598449707
15 25 4.66666650772094727
20 26.6666679382324219 3.8518519401550293
18.3333320617675781 25 4.51851844787597656
23.3333320617675781 26.6666679382324219 3.25925922393798828
21.6666679382324219 25 4.07407426834106445
26.6666679382324219 26.6666679382324219 2.37037038803100586
25 25 3.33333325386047363
30 26.6666679382324219 0
28.3333320617675781 25 2.29629635810852051
3.33333325386047363 30 0
0 30 0
1.66666674613952637 28.3333320617675781 1.25925934314727783
6.66666650772094727 30 0
5 28.3333320617675781 2.29629635810852051
10 30 0
8.33333301544189453 28.3333320617675781 3.03703689575195312
13.3333330154418945 30 0
11.6666669845581055 28.3333320617675781 3.48148155212402344
16.6666679382324219 30 0
15 28.3333320617675781 3.62962961196899414
20 30 0
18.3333320617675781 28.3333320617675781 3.48148155212402344
23.3333320617675781 30 0
21.6666679382324219 28.3333320617675781 3.03703689575195312
26.6666679382324219 30 0
25 28.3333320617675781 2.29629635810852051
30 30 0
28.3333320617675781 28.3333320617675781 1.25925934314727783
3 0 1 4 0
3 1 2 4 0
3 2 3 4 0
3 3 0 4 0
3 1 5 7 0
3 5 6 7 0
3 6 2 7 0
3 2 1 7 0
3 5 8 10 0
3 8 9 10 0
3 9 6 10 0
3 6 5 10 0
3 8 11 13 0
3 11 12 13 0
3 12 9 13 0
3 9 8 13 0
3 11 14 16 0
3 14 15 16 0
3 15 12 16 0
3 12 11 16 0
3 14 17 19 0
3 17 18 19 0
3 18 15 19 0
3 15 14 19 0
3 17 20 22 0
3 20 21 22 0
3 21 18 22 0
3 18 17 22 0
3 20 23 25 0
3 23 24 25 0
3 24 21 25 0
3 21 20 25 0
3 23 26 28 0
3 26 27 28 0
3 27 24 28 0
3 24 23 28 0
3 3 2 31 0
3 2 29 31 0
3 29 30 31 0
3 30 3 31 0
3 2 6 33 0
3 6 32 33 0
3 32 29 33 0
3 29 2 33 0
3 6 9 35 0
3 9 34 35 0
3 34 32 35 0
3 32 6 35 0
3 9 12 37 0
3 12 36 37 0
3 36 34 37 0
3 34 9 37 0
3 12 15 39 0
3 15 38 39 0
3 38 36 39 0
3 36 12 39 0
3 15 18 41 0
3 18 40 41 0
3 40 38 41 0
3 38 15 41 0
3 18 21 43 0
3 21 42 43 0
3 42 40 43 0
3 40 18 43 0
3 21 24 45 0
3 24 44 45 0
3 44 42 45 0
3 42 21 45 0
3 24 27 47 0
3 27 46 47 0
3 46 44 47 0
3 44 24 47 0
3 30 29 50 0
3 29 48 50 0
3 48 49 50 0
3 49 30 50 0
3 29 32 52 0
3 32 51 52 0
3 51 48 52 0
3 48 29 52 0
3 32 34 54 0
3 34 53 54 0
3 53 51 54 0
3 51 32 54 0
3 34 36 56 0
3 36 55 56 0
3 55 53 56 0
3 53 34 56 0
3 36 38 58 0
3 38 57 58 0
3 57 55 58 0
3 55 36 58 0
3 38 40 60 0
3 40 59 60 0
3 59 57 60 0
3 57 38 60 0
3 40 42 62 0
3 42 61 62 0
3 61 59 62 0
3 59 40 62 0
3 42 44 64 0
3 44 63 64 0
3 63 61 64 0
3 61 42 64 0
3 44 46 66 0
3 46 65 66 0
3 65 63 66 0
3 63 44 66 0
3 49 48 69 0
3 48 67 69 0
3 67 68 69 0
3 68 49 69 0
3 48 51 71 0
3 51 70 71 0
3 70 67 71 0
3 67 48 71 0
3 51 53 73 0
3 53 72 73 0
3 72 70 73 0
3 70 51 73 0
3 53 55 75 0
3 55 74 75 0
3 74 72 75 0
3 72 53 75 0
3 55 57 77 0
3 57 76 77 0
3 76 74 77 0
3 74 55 77 0
3 57 59 79 0
3 59 78 79 0
3 78 76 79 0
3 76 57 79 0
3 59 61 81 0
3 61 80 81 0
3 80 78 81 0
3 78 59 81 0
3 61 63 83 0
3 63 82 83 0
3 82 80 83 0
3 80 61 83 0
3 63 65 85 0
3 65 84 85 0
3 84 82 85 0
3 82 63 85 0
3 68 67 88 0
3 67 86 88 0
3 86 87 88 0
3 87 68 88 0
3 67 70 90 0
3 70 89 90 0
3 89 86 90 0
3 86 67 90 0
3 70 72 92 0
3 72 91 92 0
3 91 89 92 0
3 89 70 92 0
3 72 74 94 0
3 74 93 94 0
3 93 91 94 0
3 91 72 94 0
3 74 76 96 0
3 76 95 96 0
3 95 93 96 0
3 93 74 96 0
3 76 78 98 0
3 78 97 98 0
3 97 95 98 0
3 95 76 98 0
3 78 80 100 0
3 80 99 100 0
3 99 97 100 0
3 97 78 100 0
3 80 82 102 0
3 82 101 102 0
3 101 99 102 0
3 99 80 102 0
3 82 84 104 0
3 84 103 104 0
3 103 101 104 0
3 101 82 104 0
3 87 86 107 0
3 86 105 107 0
3 105 106 107 0
3 106 87 107 0
3 86 89 109 0
3 89 108 109 0
3 108 105 109 0
3 105 86 109 0
3 89 91 111 0
3 91 110 111 0
3 110 108 111 0
3 108 89 111 0
3 91 93 113 0
3 93 112 113 0
3 112 110 113 0
3 110 91 113 0
3 93 95 115 0
3 95 114 115 0
3 114 112 115 0
3 112 93 115 0
3 95 97 117 0
3 97 116 117 0
3 116 114 117 0
3 114 95 117 0
3 97 99 119 0
3 99 118 119 0
3 118 116 119 0
3 116 97 119 0
3 99 101 121 0
3 101 120 121 0
3 120 118 121 0
3 118 99 121 0
3 101 103 123 0
3 103 122 123 0
3 122 120 123 0
3 120 101 123 0
3 106 105 126 0
3 105 124 126 0
3 124 125 126 0
3 125 106 126 0
3 105 108 128 0
3 108 127 128 0
3 127 124 128 0
3 124 105 128 0
3 108 110 130 0
3 110 129 130 0
3 129 127 130 0
3 127 108 130 0
3 110 112 132 0
3 112 131 132 0
3 131 129 132 0
3 129 110 132 0
3 112 114 134 0
3 114 133 134 0
3 133 131 134 0
3 131 112 134 0
3 114 116 136 0
3 116 135 136 0
3 135 133 136 0
3 133 114 136 0
3 116 118 138 0
3 118 137 138 0
3 137 135 138 0
3 135 116 138 0
3 118 120 140 0
3 120 139 140 0
3 139 137 140 0
3 137 118 140 0
3 120 122 142 0
3 122 141 142 0
3 141 139 142 0
3 139 120 142 0
3 125 124 145 0
3 124 143 145 0
3 143 144 145 0
3 144 125 145 0
3 124 127 147 0
3 127 146 147 0
3 146 143 147 0
3 143 124 147 0
3 127 129 149 0
3 129 148 149 0
3 148 146 149 0
3 146 127 149 0
3 129 131 151 0
3 131 150 151 0
3 150 148 151 0
3 148 129 151 0
3 131 133 153 0
3 133 152 153 0
3 152 150 153 0
3 150 131 153 0
3 133 135 155 0
3 135 154 155 0
3 154 152 155 0
3 152 133 155 0
3 135 137 157 0
3 137 156 157 0
3 156 154 157 0
3 154 135 157 0
3 137 139 159 0
3 139 158 159 0
3 158 156 159 0
3 156 137 159 0
3 139 141 161 0
3 141 160 161 0
3 160 158 161 0
3 158 139 161 0
3 144 143 164 0
3 143 162 164 0
3 162 163 164 0
3 163 144 164 0
3 143 146 166 0
3 146 165 166 0
3 165 162 166 0
3 162 143 166 0
3 146 148 168 0
3 148 167 168 0
3 167 165 168 0
3 165 146 168 0
3 148 150 170 0
3 150 169 170 0
3 169 167 170 0
3 167 148 170 0
3 150 152 172 0
3 152 171 172 0
3 171 169 172 0
3 169 150 172 0
3 152 154 174 0
3 154 173 174 0
3 173 171 174 0
3 171 152 174 0
3 154 156 176 0
3 156 175 176 0
3 175 173 176 0
3 173 154 176 0
3 156 158 178 0
3 158 177 178 0
3 177 175 178 0
3 175 156 178 0
3 158 160 180 0
3 160 179 180 0
3 179 177 180 0
3 177 158 180 0
