ply
format ascii 1.0
element vertex 181
property float x
property float y
property float z
element face 324
property list uchar int vertex_indices
property uchar red
end_header
0 0 0
3.33238601684570312 -0.000889978662598878145 0.000584422785323113203
3.30969715118408203 3.30969715118408203 -0.553346872329711914
-0.000889978604391217232 3.33238601684570312 0.000584422843530774117
1.66971111297607422 1.66971111297607422 -0.000732748478185385466
6.66113901138305664 0.00429384456947445869 -0.000717384798917919397
6.65094327926635742 3.37997889518737793 0.0703309327363967896
4.99409961700439453 1.65693271160125732 -0.213252589106559753
9.99812793731689453 0.00262479344382882118 0.000514548213686794043
10.0015897750854492 3.2943720817565918 0.80102914571762085
8.33039569854736328 1.65879309177398682 0.177057594060897827
13.3536911010742188 -0.00382634997367858887 -0.000381753285182639956
13.2741022109985352 2.87253427505493164 1.79725801944732666
11.6790752410888672 1.57426691055297852 0.510161042213439941
16.6463088989257812 -0.00382641656324267387 -0.000381592079065740108
16.7258968353271484 2.87253427505493164 1.79725813865661621
15 1.42654907703399658 0.893555581569671631
20.0018711090087891 0.00262500951066613197 0.000514631159603595734
19.9984111785888672 3.2943723201751709 0.801029086112976074
18.3209247589111328 1.57426750659942627 0.510160326957702637
23.3388595581054688 0.00429443782195448875 -0.00071749865310266614
23.3490562438964844 3.37997937202453613 0.070330500602722168
21.6696033477783203 1.65879392623901367 0.177054703235626221
26.6676139831542969 -0.000890283030457794666 0.000584468536544591188
26.6903038024902344 3.30969691276550293 -0.553346157073974609
25.0059013366699219 1.65693306922912598 -0.213247299194335938
30 2.04470246221390877e-17 2.79505784819546145e-17
30.0008907318115234 3.33238625526428223 0.000584446475841104984
28.3302898406982422 1.66971099376678467 -0.000732647138647735119
3.37997889518737793 6.65094327926635742 0.0703309327363967896
0.004293845035135746 6.66113901138305664 -0.000717384798917919397
1.65693271160125732 4.99409961700439453 -0.213252589106559753
6.26792430877685547 6.26792430877685547 1.93857502937316895
4.75982284545898438 4.75982284545898438 0.692017674446105957
9.67899322509765625 6.12885665893554688 2.82267904281616211
8.11914348602294922 4.68268346786499023 1.49993038177490234
13.213191032409668 6.06399631500244141 3.26424884796142578
11.4944953918457031 4.46676778793334961 2.34123539924621582
16.7868099212646484 6.06399631500244141 3.26424908638000488
15 4.39852619171142578 2.63523459434509277
20.3210067749023438 6.12885665893554688 2.82267928123474121
18.5055046081542969 4.46676778793334961 2.34123563766479492
23.7320766448974609 6.26792430877685547 1.9385756254196167
21.8808574676513672 4.68268346786499023 1.49993038177490234
26.6200218200683594 6.65094327926635742 0.0703313425183296204
25.2401771545410156 4.75982284545898438 0.692018330097198486
29.9957065582275391 6.66113901138305664 -0.000717378105036914349
28.3430671691894531 4.99409961700439453 -0.213252410292625427
3.2943720817565918 10.0015897750854492 0.80102914571762085
0.00262479344382882118 9.99812793731689453 0.000514548213686794043
1.65879309177398682 8.33039569854736328 0.177057579159736633
6.12885665893554688 9.67899322509765625 2.82267904281616211
4.68268346786499023 8.11914348602294922 1.49993038177490234
9.57473087310791016 9.57473087310791016 3.80456829071044922
7.87066745758056641 7.87066745758056641 2.95997953414916992
13.1750736236572266 9.52535438537597656 4.29526472091674805
11.3899698257446289 7.77655744552612305 3.66388893127441406
16.8249263763427734 9.52535438537597656 4.29526472091674805
15 7.74648189544677734 3.89830422401428223
20.4252700805664062 9.57473087310791016 3.80456852912902832
18.6100311279296875 7.77655744552612305 3.66388916969299316
23.8711433410644531 9.67899322509765625 2.82267928123474121
22.12933349609375 7.8706669807434082 2.95998001098632812
26.70562744140625 10.0015888214111328 0.801029622554779053
25.3173160552978516 8.11914348602294922 1.49993085861206055
29.99737548828125 9.99812793731689453 0.000514519691932946444
28.3412075042724609 8.33039569854736328 0.177056729793548584
2.87253427505493164 13.2741022109985352 1.79725801944732666
-0.00382634997367858887 13.3536911010742188 -0.000381753605324774981
1.57426691055297852 11.6790752410888672 0.510161042213439941
6.06399631500244141 13.213191032409668 3.26424884796142578
4.46676778793334961 11.4944953918457031 2.34123539924621582
9.52535438537597656 13.1750736236572266 4.29526472091674805
7.77655744552612305 11.3899698257446289 3.66388893127441406
13.1568317413330078 13.1568317413330078 4.81212663650512695
11.334813117980957 11.334813117980957 4.42655563354492188
16.8431682586669922 13.1568317413330078 4.81212663650512695
15 11.3170328140258789 4.68081235885620117
20.4746456146240234 13.1750736236572266 4.29526472091674805
18.6651859283447266 11.334813117980957 4.42655611038208008
23.936004638671875 13.213191032409668 3.26424908638000488
22.2234420776367188 11.3899698257446289 3.66388916969299316
27.1274662017822266 13.2741022109985352 1.79725813865661621
25.5332317352294922 11.4944953918457031 2.34123563766479492
30.0038261413574219 13.3536911010742188 -0.000381772522814571857
28.4257335662841797 11.6790752410888672 0.510161399841308594
2.87253427505493164 16.7258968353271484 1.79725813865661621
-0.00382641656324267387 16.6463088989257812 -0.000381592486519366503
1.42654895782470703 15 0.893555581569671631
6.06399631500244141 16.7868099212646484 3.26424908638000488
4.39852619171142578 15 2.63523459434509277
9.52535438537597656 16.8249263763427734 4.29526472091674805
7.74648189544677734 15 3.89830422401428223
13.1568317413330078 16.8431682586669922 4.81212663650512695
11.3170328140258789 15 4.68081235885620117
16.8431682586669922 16.8431682586669922 4.81212663650512695
15 15 4.94196605682373047
20.4746456146240234 16.8249263763427734 4.29526472091674805
18.6829662322998047 15 4.68081235885620117
23.936004638671875 16.7868099212646484 3.26424908638000488
22.2535190582275391 15 3.89830446243286133
27.1274662017822266 16.7258968353271484 1.79725813865661621
25.6014747619628906 15 2.63523483276367188
30.0038261413574219 16.6463088989257812 -0.000381611374905332923
28.5734500885009766 15 0.893555521965026855
3.2943723201751709 19.9984111785888672 0.801029086112976074
0.00262500951066613197 20.0018711090087891 0.000514631159603595734
1.57426750659942627 18.3209247589111328 0.510160326957702637
6.12885665893554688 20.3210067749023438 2.82267928123474121
4.46676778793334961 18.5055046081542969 2.34123563766479492
9.57473087310791016 20.4252700805664062 3.80456852912902832
7.77655744552612305 18.6100311279296875 3.66388916969299316
13.1750736236572266 20.4746456146240234 4.29526472091674805
11.334813117980957 18.6651859283447266 4.42655611038208008
16.8249263763427734 20.4746456146240234 4.29526472091674805
15 18.6829662322998047 4.68081235885620117
20.4252700805664062 20.4252700805664062 3.80456876754760742
18.6651859283447266 18.6651859283447266 4.42655611038208008
23.8711433410644531 20.3210067749023438 2.82267951965332031
22.2234420776367188 18.6100311279296875 3.66388916969299316
26.70562744140625 19.9984111785888672 0.801029562950134277
25.5332317352294922 18.5055046081542969 2.34123563766479492
29.99737548828125 20.0018730163574219 0.000514602405019104481
28.4257335662841797 18.3209247589111328 0.510160684585571289
3.37997937202453613 23.3490562438964844 0.070330500602722168
0.00429443828761577606 23.3388595581054688 -0.000717498594895005226
1.65879392623901367 21.6696033477783203 0.177054703235626221
6.26792430877685547 23.7320766448974609 1.9385756254196167
4.68268346786499023 21.8808574676513672 1.49993038177490234
9.67899322509765625 23.8711433410644531 2.82267928123474121
7.8706669807434082 22.12933349609375 2.95998001098632812
13.213191032409668 23.936004638671875 3.26424908638000488
11.3899698257446289 22.2234420776367188 3.66388916969299316
16.7868099212646484 23.936004638671875 3.26424908638000488
15 22.2535190582275391 3.89830446243286133
20.3210067749023438 23.8711433410644531 2.82267951965332031
18.6100311279296875 22.2234420776367188 3.66388916969299316
23.7320766448974609 23.7320766448974609 1.93857622146606445
22.12933349609375 22.12933349609375 2.95998048782348633
26.6200199127197266 23.3490562438964844 0.0703309103846549988
25.3173160552978516 21.8808574676513672 1.49993085861206055
29.9957046508789062 23.3388595581054688 -0.000717491959221661091
28.3412055969238281 21.6696033477783203 0.177053853869438171
3.30969691276550293 26.6903038024902344 -0.553346157073974609
-0.000890283030457794666 26.6676139831542969 0.000584468536544591188
1.65693306922912598 25.0059013366699219 -0.213247299194335938
6.65094327926635742 26.6200218200683594 0.0703313425183296204
4.75982284545898438 25.2401771545410156 0.692018330097198486
10.0015888214111328 26.70562744140625 0.801029622554779053
8.11914348602294922 25.3173160552978516 1.49993085861206055
13.2741022109985352 27.1274662017822266 1.79725813865661621
11.4944953918457031 25.5332317352294922 2.34123563766479492
16.7258968353271484 27.1274662017822266 1.79725813865661621
15 25.6014747619628906 2.63523483276367188
19.9984111785888672 26.70562744140625 0.801029562950134277
18.5055046081542969 25.5332317352294922 2.34123563766479492
23.3490562438964844 26.6200199127197266 0.0703309103846549988
21.8808574676513672 25.3173160552978516 1.49993085861206055
26.6903038024902344 26.6903038024902344 -0.553345441818237305
25.2401771545410156 25.2401771545410156 0.692018985748291016
30.0008907318115234 26.6676139831542969 0.000584492168854922056
28.3430671691894531 25.0059013366699219 -0.213247135281562805
3.33238625526428223 30.0008907318115234 0.000584446359425783157
2.91401543654926365e-18 30 -2.47696608130559281e-18
1.66971099376678467 28.3302898406982422 -0.000732647080440074205
6.66113901138305664 29.9957065582275391 -0.000717378105036914349
4.99409961700439453 28.3430671691894531 -0.213252410292625427
9.99812793731689453 29.99737548828125 0.00051451963372528553
8.33039569854736328 28.3412075042724609 0.177056729793548584
13.3536911010742188 30.0038261413574219 -0.000381772581022232771
11.6790752410888672 28.4257335662841797 0.510161399841308594
16.6463088989257812 30.0038261413574219 -0.00038161149132065475
15 28.5734500885009766 0.893555521965026855
20.0018730163574219 29.99737548828125 0.000514602463226765394
18.3209247589111328 28.4257335662841797 0.510160684585571289
23.3388595581054688 29.9957046508789062 -0.000717491842806339264
21.6696033477783203 28.3412055969238281 0.177053853869438171
26.6676139831542969 30.0008907318115234 0.00058449222706258297
25.0059013366699219 28.3430671691894531 -0.213247135281562805
30 30 -8.06181391932450238e-19
28.3302898406982422 28.3302898406982422 -0.000732542481273412704
3 0 1 4 0
3 1 2 4 0
3 2 3 4 0
3 3 0 4 0
3 1 5 7 0
3 5 6 7 0
3 6 2 7 0
3 2 1 7 0
3 5 8 10 0
3 8 9 10 0
3 9 6 10 0
3 6 5 10 0
3 8 11 13 0
3 11 12 13 0
3 12 9 13 0
3 9 8 13 0
3 11 14 16 0
3 14 15 16 0
3 15 12 16 0
3 12 11 16 0
3 14 17 19 0
3 17 18 19 0
3 18 15 19 0
3 15 14 19 0
3 17 20 22 0
3 20 21 22 0
3 21 18 22 0
3 18 17 22 0
3 20 23 25 0
3 23 24 25 0
3 24 21 25 0
3 21 20 25 0
3 23 26 28 0
3 26 27 28 0
3 27 24 28 0
3 24 23 28 0
3 3 2 31 0
3 2 29 31 0
3 29 30 31 0
3 30 3 31 0
3 2 6 33 0
3 6 32 33 0
3 32 29 33 0
3 29 2 33 0
3 6 9 35 0
3 9 34 35 0
3 34 32 35 0
3 32 6 35 0
3 9 12 37 0
3 12 36 37 0
3 36 34 37 0
3 34 9 37 0
3 12 15 39 0
3 15 38 39 0
3 38 36 39 0
3 36 12 39 0
3 15 18 41 0
3 18 40 41 0
3 40 38 41 0
3 38 15 41 0
3 18 21 43 0
3 21 42 43 0
3 42 40 43 0
3 40 18 43 0
3 21 24 45 0
3 24 44 45 0
3 44 42 45 0
3 42 21 45 0
3 24 27 47 0
3 27 46 47 0
3 46 44 47 0
3 44 24 47 0
3 30 29 50 0
3 29 48 50 0
3 48 49 50 0
3 49 30 50 0
3 29 32 52 0
3 32 51 52 0
3 51 48 52 0
3 48 29 52 0
3 32 34 54 0
3 34 53 54 0
3 53 51 54 0
3 51 32 54 0
3 34 36 56 0
3 36 55 56 0
3 55 53 56 0
3 53 34 56 0
3 36 38 58 0
3 38 57 58 0
3 57 55 58 0
3 55 36 58 0
3 38 40 60 0
3 40 59 60 0
3 59 57 60 0
3 57 38 60 0
3 40 42 62 0
3 42 61 62 0
3 61 59 62 0
3 59 40 62 0
3 42 44 64 0
3 44 63 64 0
3 63 61 64 0
3 61 42 64 0
3 44 46 66 0
3 46 65 66 0
3 65 63 66 0
3 63 44 66 0
3 49 48 69 0
3 48 67 69 0
3 67 68 69 0
3 68 49 69 0
3 48 51 71 0
3 51 70 71 0
3 70 67 71 0
3 67 48 71 0
3 51 53 73 0
3 53 72 73 0
3 72 70 73 0
3 70 51 73 0
3 53 55 75 0
3 55 74 75 0
3 74 72 75 0
3 72 53 75 0
3 55 57 77 0
3 57 76 77 0
3 76 74 77 0
3 74 55 77 0
3 57 59 79 0
3 59 78 79 0
3 78 76 79 0
3 76 57 79 0
3 59 61 81 0
3 61 80 81 0
3 80 78 81 0
3 78 59 81 0
3 61 63 83 0
3 63 82 83 0
3 82 80 83 0
3 80 61 83 0
3 63 65 85 0
3 65 84 85 0
3 84 82 85 0
3 82 63 85 0
3 68 67 88 0
3 67 86 88 0
3 86 87 88 0
3 87 68 88 0
3 67 70 90 0
3 70 89 90 0
3 89 86 90 0
3 86 67 90 0
3 70 72 92 0
3 72 91 92 0
3 91 89 92 0
3 89 70 92 0
3 72 74 94 0
3 74 93 94 0
3 93 91 94 0
3 91 72 94 0
3 74 76 96 0
3 76 95 96 0
3 95 93 96 0
3 93 74 96 0
3 76 78 98 0
3 78 97 98 0
3 97 95 98 0
3 95 76 98 0
3 78 80 100 0
3 80 99 100 0
3 99 97 100 0
3 97 78 100 0
3 80 82 102 0
3 82 101 102 0
3 101 99 102 0
3 99 80 102 0
3 82 84 104 0
3 84 103 104 0
3 103 101 104 0
3 101 82 104 0
3 87 86 107 0
3 86 105 107 0
3 105 106 107 0
3 106 87 107 0
3 86 89 109 0
3 89 108 109 0
3 108 105 109 0
3 105 86 109 0
3 89 91 111 0
3 91 110 111 0
3 110 108 111 0
3 108 89 111 0
3 91 93 113 0
3 93 112 113 0
3 112 110 113 0
3 110 91 113 0
3 93 95 115 0
3 95 114 115 0
3 114 112 115 0
3 112 93 115 0
3 95 97 117 0
3 97 116 117 0
3 116 114 117 0
3 114 95 117 0
3 97 99 119 0
3 99 118 119 0
3 118 116 119 0
3 116 97 119 0
3 99 101 121 0
3 101 120 121 0
3 120 118 121 0
3 118 99 121 0
3 101 103 123 0
3 103 122 123 0
3 122 120 123 0
3 120 101 123 0
3 106 105 126 0
3 105 124 126 0
3 124 125 126 0
3 125 106 126 0
3 105 108 128 0
3 108 127 128 0
3 127 124 128 0
3 124 105 128 0
3 108 110 130 0
3 110 129 130 0
3 129 127 130 0
3 127 108 130 0
3 110 112 132 0
3 112 131 132 0
3 131 129 132 0
3 129 110 132 0
3 112 114 134 0
3 114 133 134 0
3 133 131 134 0
3 131 112 134 0
3 114 116 136 0
3 116 135 136 0
3 135 133 136 0
3 133 114 136 0
3 116 118 138 0
3 118 137 138 0
3 137 135 138 0
3 135 116 138 0
3 118 120 140 0
3 120 139 140 0
3 139 137 140 0
3 137 118 140 0
3 120 122 142 0
3 122 141 142 0
3 141 139 142 0
3 139 120 142 0
3 125 124 145 0
3 124 143 145 0
3 143 144 145 0
3 144 125 145 0
3 124 127 147 0
3 127 146 147 0
3 146 143 147 0
3 143 124 147 0
3 127 129 149 0
3 129 148 149 0
3 148 146 149 0
3 146 127 149 0
3 129 131 151 0
3 131 150 151 0
3 150 148 151 0
3 148 129 151 0
3 131 133 153 0
3 133 152 153 0
3 152 150 153 0
3 150 131 153 0
3 133 135 155 0
3 135 154 155 0
3 154 152 155 0
3 152 133 155 0
3 135 137 157 0
3 137 156 157 0
3 156 154 157 0
3 154 135 157 0
3 137 139 159 0
3 139 158 159 0
3 158 156 159 0
3 156 137 159 0
3 139 141 161 0
3 141 160 161 0
3 160 158 161 0
3 158 139 161 0
3 144 143 164 0
3 143 162 164 0
3 162 163 164 0
3 163 144 164 0
3 143 146 166 0
3 146 165 166 0
3 165 162 166 0
3 162 143 166 0
3 146 148 168 0
3 148 167 168 0
3 167 165 168 0
3 165 146 168 0
3 148 150 170 0
3 150 169 170 0
3 169 167 170 0
3 167 148 170 0
3 150 152 172 0
3 152 171 172 0
3 171 169 172 0
3 169 150 172 0
3 152 154 174 0
3 154 173 174 0
3 173 171 174 0
3 171 152 174 0
3 154 156 176 0
3 156 175 176 0
3 175 173 176 0
3 173 154 176 0
3 156 158 178 0
3 158 177 178 0
3 177 175 178 0
3 175 156 178 0
3 158 160 180 0
3 160 179 180 0
3 179 177 180 0
3 177 158 180 0
