ply
format ascii 1.0
element vertex 169
property double x
property double y
property double z
element face 294
property list uchar int vertex_indices
property uchar red
end_header
-7.25421628087708597e-14 3.93646709807166996e-13 9.74731121179997828
2.11951687311128012 7.40276180282855792e-13 9.64619348226014139
1.05975907490677312 1.83555570995432427 9.6462048616370808
-1.05975907490752674 1.83555570995398654 9.64620486163731705
-2.1195168731114431 6.20247415363151221e-14 9.64619348226052686
-1.05975907490693677 -1.83555570995352224 9.64620486163700797
1.0597590749073631 -1.83555570995318407 9.64620486163684809
4.24719459476946515 1.10066429878116102e-12 9.33961188164792588
3.18342775993465521 1.83795180014059412 9.44234125637163579
2.12360305301579944 3.67818637806765025 9.33962003658407092
-6.93370904802538357e-13 3.67590620564105963 9.44235311382178111
-2.1236030530172143 3.6781863780669859 9.33962003658463757
-3.18342775993545413 1.8379518001395827 9.44234125637233213
-4.24719459476968275 -2.50794942566218323e-13 9.33961188164869149
-3.18342775993485239 -1.83795180013975967 9.44234125637190935
-2.12360305301601837 -3.6781863780668056 9.33962003658393414
4.91784419851997312e-13 -3.67590620564023141 9.4423531138212784
2.12360305301699093 -3.67818637806613769 9.33962003658368545
3.18342775993524851 -1.83795180013874759 9.44234125637142974
6.38854199510161713 1.47590489354255942e-12 8.81819311837864106
5.31818916002583819 1.8422770714558363 9.02824666953006982
4.2545498387090479 3.68455295059338583 9.02824842367029667
3.19427642532654366 5.53264471139934866 8.81819605041221877
1.06363937451706425 5.52683039895291728 9.02824446727143304
-1.06363937451914481 5.52683039895259842 9.02824446727178653
-3.19427642532869305 5.53264471139839031 8.8181960504132455
-4.25454983871054448 3.68455295059206334 9.02824842367140512
-5.31818916002672104 1.84227707145415964 9.02824666953119248
-6.38854199510191822 -5.37771021442861061e-13 8.81819311837974595
-5.31818916002609221 -1.84227707145493214 9.02824666953063293
-4.25454983870930814 -3.68455295059248567 9.02824842367043878
-3.19427642532685008 -5.5326447113984365 8.81819605041202159
-1.06363937451734447 -5.52683039895205308 9.02824446727097119
1.06363937451886503 -5.52683039895172801 9.02824446727089303
3.19427642532835421 -5.53264471139745861 8.81819605041176047
4.2545498387102425 -3.68455295059115207 9.02824842366991831
5.31818916002642883 -1.84227707145325348 9.02824666952984067
8.54396648885914622 1.87029043529724706e-12 8.06772525905077664
7.46705940734486973 1.84762757978541114 8.3919818585292294
6.39752268498868482 3.69361433285896767 8.49908132415774453
5.3336176302458469 5.54285225649120949 8.39197705449358011
4.27197813751402222 7.39928502776907759 8.06772065152711448
2.13344152538429999 7.39047308926175539 8.39198410855937027
-1.407394007538456e-12 7.38721811111688975 8.49907627950078748
-2.1334415253871577 7.39047308926116298 8.39198410856023003
-4.2719781375169914 7.39928502776786967 8.06772065152869899
-5.33361763024812774 5.54285225648962232 8.39197705449524101
-6.39752268499030929 3.69361433285700036 8.49908132415936102
-7.46705940734586004 1.8476275797830839 8.39198185853071799
-8.54396648885953347 -7.87562102660585171e-13 8.06772525905213733
-7.46705940734518503 -1.84762757978438819 8.39198185853000034
-6.39752268498899657 -3.69361433285796714 8.49908132415809092
-5.33361763024618973 -5.54285225649020497 8.3919770544935588
-4.27197813751443167 -7.39928502776806329 8.06772065152681606
-2.13344152538469789 -7.39047308926085478 8.39198410855899901
1.0260321826926071e-12 -7.38721811111601667 8.49907627950009115
2.13344152538674869 -7.39047308926024371 8.39198410855897237
4.27197813751646294 -7.39928502776682073 8.06772065152664908
5.33361763024764368 -5.54285225648856894 8.39197705449303299
6.3975226849898581 -3.69361433285597318 8.49908132415726314
7.46705940734543816 -1.84762757978205672 8.39198185852892031
10.7070661269387255 2.29399040093684084e-12 7.07120789852703258
9.62694647970311301 1.85275858258108173 7.51765270927910212
8.55204249608982536 3.70317036660338905 7.73816604195174573
7.48305977992790972 5.55470337816091941 7.73816772982747292
6.41800642946566846 7.41079254798039955 7.51765149651166631
5.35352780287151298 9.27258037167574578 7.07121548395176003
3.20894220712616107 9.2635556030443631 7.51765572522009329
1.06898436589393397 9.25787027379239547 7.73817425115975599
-1.06898436589758705 9.25787027379217875 7.73817425116039814
-3.20894220712991718 9.26355560304362413 7.51765572522174352
-5.35352780287537211 9.27258037167431404 7.07121548395389432
-6.41800642946882149 7.41079254797859921 7.51765149651394715
-7.48305977993038329 5.55470337815873272 7.73816772982976087
-8.55204249609160527 3.70317036660080001 7.73816604195379742
-9.62694647970419481 1.85275858257812476 7.5176527092808163
-10.7070661269391803 -9.81750437259244985e-13 7.07120789852854337
-9.62694647970342032 -1.8527585825798667 7.5176527092798473
-8.55204249609017531 -3.70317036660223264 7.73816604195219604
-7.48305977992830407 -5.55470337815978787 7.73816772982761769
-6.4180064294660637 -7.41079254797920495 7.51765149651130482
-5.35352780287198371 -9.27258037167453963 7.07121548395116939
-3.20894220712669709 -9.26355560304343228 7.51765572521982683
-1.06898436589446733 -9.25787027379160143 7.73817425115946822
1.06898436589705592 -9.25787027379134564 7.73817425115959079
3.20894220712930078 -9.26355560304264003 7.51765572522008885
5.35352780287455499 -9.27258037167312743 7.0712154839512662
6.41800642946801414 -7.41079254797729803 7.51765149651081632
7.48305977992964699 -5.55470337815748305 7.73816772982671619
8.55204249609093381 -3.70317036659959076 7.73816604195107161
9.62694647970358197 -1.8527585825769004 7.51765270927854345
12.8642988572319155 2.78216687380843124e-12 5.81238975703055338
11.7871843886053664 1.85621912904623798 6.3876735633182502
10.7105543695940142 3.71041809410633849 6.72859146095958138
9.63771650048754402 5.56433854370693393 6.84160726300679656
8.56859070143308266 7.4203882987415879 6.72859812796853607
7.50113466761183734 9.27990184190669964 6.38767362375925529
6.43217165782779965 11.1408314013629681 5.81238228306688853
4.28606703555155732 11.1361134942791615 6.38767556519801349
2.14196108729135215 11.1308064522706545 6.72860704164393475
-2.28706153483243363e-12 11.1286715608993863 6.84162418629725355
-2.1419610872960444 11.1308064522706776 6.72860704164611612
-4.28606703555630819 11.1361134942783853 6.38767556520055102
-6.43217165783246347 11.140831401361126 5.8123822830691001
-7.50113466761585546 9.27990184190461598 6.38767362376189407
-8.5685907014366105 7.42038829873933636 6.72859812797182588
-9.63771650049034534 5.56433854370424541 6.84160726300987587
-10.7105543695957763 3.71041809410311263 6.72859146096159932
-11.7871843886064163 1.85621912904266639 6.38767356331990577
-12.8642988572326367 -1.07537301395063954e-12 5.81238975703252247
-11.7871843886052794 -1.85621912904467856 6.38767356331823599
-10.7105543695941794 -3.71041809410491341 6.72859146095963734
-9.63771650048816042 -5.56433854370573222 6.84160726300747601
-8.56859070143358181 -7.42038829874027339 6.72859812796844903
-7.50113466761207004 -9.27990184190500322 6.38767362375791325
-6.43217165782826417 -11.1408314013615257 5.81238228306593818
-4.28606703555216306 -11.1361134942780886 6.38767556519758628
-2.14196108729206891 -11.1308064522700576 6.72860704164420653
1.57123340522403907e-12 -11.1286715608989439 6.84162418629748093
2.14196108729525525 -11.1308064522698125 6.72860704164497481
4.28606703555537116 -11.1361134942773301 6.38767556519847091
6.43217165783134082 -11.1408314013600211 5.81238228306632632
7.50113466761451253 -9.27990184190291956 6.38767362375760239
8.56859070143530666 -7.42038829873763639 6.72859812796734591
9.63771650048925288 -5.56433854370271064 6.84160726300596789
10.7105543695948882 -3.71041809410165691 6.72859146095840188
11.7871843886054499 -1.85621912904112274 6.38767356331694991
15.0011960959780808 3.42404127394312323e-12 4.28493533621700617
13.9290602293526664 1.85653362467786431 4.98514628440719498
12.8565543157872142 3.71216640084952187 5.45212248080392303
11.7846646655716647 5.5671619975279123 5.68558510351052693
10.7136536100538162 7.42224122524925711 5.68557721448202358
9.6431259022518887 9.27804581677915863 5.4521049261614758
8.57233352968600926 11.1346250051543816 4.98516437526060674
7.50060242765448137 12.9914306037160365 4.28492680459550535
5.35671652168364343 12.9911865013711072 4.98515190593076518
3.21347503023107173 12.9902312585178699 5.45209628966731863
1.07103934364215081 12.9894296346888787 5.68557494699085542
-1.07103934364799436 12.9894296346901488 5.68557494699407773
-3.21347503023711711 12.9902312585191595 5.45209628967247451
-5.35671652168898849 12.9911865013695476 4.98515190593272184
-7.50060242765948271 12.9914306037129315 4.28492680459642106
-8.57233352969088003 11.1346250051519018 4.98516437526336809
-9.64312590225609156 9.27804581677637508 5.45210492616454978
-10.7136536100584774 7.42224122524706864 5.68557721448764131
-11.7846646655746898 5.56716199752478236 5.68558510351401569
-12.8565543157876299 3.71216640084535543 5.45212248080367257
-13.9290602293548567 1.85653362467380689 4.98514628441059848
-15.001196095979207 -9.1660714287119677e-13 4.2849353362195437
-13.9290602293515438 -1.85653362467562544 4.98514628440559893
-12.8565543157853934 -3.71216640084731164 5.45212248080063411
-11.7846646655726506 -5.56716199752674612 5.68558510351188939
-10.7136536100557134 -7.42224122524862295 5.68557721448480979
-9.64312590225139488 -9.27804581677641949 5.45210492615847642
-8.57233352968558648 -11.1346250051516282 4.98516437525736755
-7.5006024276552612 -12.9914306037152034 4.28492680459551689
-5.35671652168433798 -12.9911865013701178 4.98515190593051738
-3.21347503023175873 -12.9902312585169213 5.45209628966704862
-1.07103934364313891 -12.9894296346896745 5.68557494699332899
1.07103934364697428 -12.9894296346902536 5.68557494699490462
3.213475030235597 -12.9902312585169319 5.45209628966873527
5.35671652168824153 -12.9911865013698176 4.98515190593253799
7.50060242765866647 -12.9914306037136065 4.2849268045960196
8.57233352968813911 -11.1346250051489903 4.98516437525640832
9.64312590225400079 -9.27804581677407292 5.45210492615853859
10.7136536100564665 -7.42224122524480823 5.68557721448170916
11.784664665573624 -5.5671619975230584 5.68558510351016011
12.8565543157868163 -3.71216640084366922 5.4521224808006048
13.9290602293516272 -1.85653362467155625 4.98514628440418406
3 51 29 50 0
3 109 147 148 0
3 47 74 48 0
3 111 112 78 0
3 23 24 10 0
3 5 14 15 0
3 78 112 79 0
3 116 81 115 0
3 101 138 139 0
3 69 43 68 0
3 67 98 99 0
3 81 53 80 0
3 79 112 113 0
3 4 13 14 0
3 118 117 158 0
3 19 37 38 0
3 120 119 160 0
3 153 114 113 0
3 80 79 113 0
3 157 116 156 0
3 115 81 114 0
3 18 35 36 0
3 82 54 53 0
3 16 17 6 0
3 14 13 29 0
3 83 55 54 0
3 52 79 80 0
3 108 147 109 0
3 111 151 112 0
3 152 113 112 0
3 114 81 80 0
3 75 74 107 0
3 153 154 114 0
3 108 107 146 0
3 45 72 46 0
3 102 139 140 0
3 105 72 104 0
3 103 141 142 0
3 70 69 101 0
3 68 99 100 0
3 46 72 73 0
3 2 10 3 0
3 12 4 3 0
3 21 39 40 0
3 21 40 22 0
3 39 63 64 0
3 19 38 20 0
3 64 94 95 0
3 41 65 66 0
3 65 96 66 0
3 64 40 39 0
3 95 94 131 0
3 95 131 132 0
3 93 63 62 0
3 38 63 39 0
3 38 62 63 0
3 92 62 61 0
3 36 19 7 0
3 90 61 37 0
3 60 90 37 0
3 93 62 92 0
3 7 8 1 0
3 10 9 23 0
3 32 31 54 0
3 84 83 118 0
3 120 85 119 0
3 34 35 17 0
3 89 59 88 0
3 34 17 33 0
3 86 87 57 0
3 57 87 58 0
3 155 115 154 0
3 110 150 111 0
3 112 151 152 0
3 152 153 113 0
3 114 80 113 0
3 32 54 55 0
3 31 52 53 0
3 51 30 29 0
3 115 114 154 0
3 156 115 155 0
3 156 116 115 0
3 117 116 157 0
3 82 53 81 0
3 158 117 157 0
3 83 54 82 0
3 159 119 118 0
3 159 118 158 0
3 119 85 84 0
3 118 83 117 0
3 56 85 57 0
3 56 55 84 0
3 16 6 5 0
3 80 53 52 0
3 81 116 82 0
3 117 82 116 0
3 117 83 82 0
3 15 30 31 0
3 29 13 28 0
3 52 31 30 0
3 53 54 31 0
3 16 15 32 0
3 14 30 15 0
3 31 32 15 0
3 32 33 16 0
3 0 4 5 0
3 11 26 12 0
3 0 5 6 0
3 4 14 5 0
3 50 28 49 0
3 27 26 47 0
3 78 79 51 0
3 30 14 29 0
3 52 51 79 0
3 77 111 78 0
3 78 50 77 0
3 29 28 50 0
3 109 149 110 0
3 110 149 150 0
3 78 51 50 0
3 52 30 51 0
3 111 150 151 0
3 148 149 109 0
3 77 110 111 0
3 76 75 108 0
3 77 76 110 0
3 108 146 147 0
3 110 76 109 0
3 77 50 49 0
3 77 49 76 0
3 48 74 75 0
3 49 75 76 0
3 49 48 75 0
3 28 48 49 0
3 27 13 12 0
3 74 106 107 0
3 76 108 109 0
3 75 107 108 0
3 107 145 146 0
3 106 144 145 0
3 107 106 145 0
3 73 72 105 0
3 105 106 73 0
3 143 104 142 0
3 143 144 105 0
3 104 103 142 0
3 143 105 104 0
3 144 106 105 0
3 74 73 106 0
3 73 47 46 0
3 72 71 104 0
3 140 141 103 0
3 101 102 70 0
3 103 104 71 0
3 71 102 103 0
3 103 102 140 0
3 71 70 102 0
3 72 45 71 0
3 69 100 101 0
3 138 101 100 0
3 139 102 101 0
3 11 24 25 0
3 70 71 45 0
3 45 44 70 0
3 43 24 23 0
3 70 44 69 0
3 25 46 26 0
3 22 23 9 0
3 44 45 25 0
3 74 47 73 0
3 26 11 25 0
3 44 25 24 0
3 45 46 25 0
3 28 27 48 0
3 26 46 47 0
3 48 27 47 0
3 28 13 27 0
3 27 12 26 0
3 13 4 12 0
3 2 3 0 0
3 11 12 3 0
3 1 2 0 0
3 3 4 0 0
3 6 1 0 0
3 20 39 21 0
3 11 10 24 0
3 2 8 9 0
3 36 60 19 0
3 20 21 8 0
3 41 67 42 0
3 68 100 69 0
3 9 21 22 0
3 9 8 21 0
3 3 10 11 0
3 2 9 10 0
3 42 43 23 0
3 43 44 24 0
3 22 42 23 0
3 69 44 43 0
3 40 41 22 0
3 99 137 100 0
3 42 68 43 0
3 42 22 41 0
3 100 137 138 0
3 67 99 68 0
3 98 66 97 0
3 99 136 137 0
3 42 67 68 0
3 66 98 67 0
3 65 41 40 0
3 66 67 41 0
3 99 98 136 0
3 66 96 97 0
3 98 97 135 0
3 98 135 136 0
3 97 96 133 0
3 135 97 134 0
3 97 133 134 0
3 96 132 133 0
3 96 65 95 0
3 96 95 132 0
3 65 64 95 0
3 131 94 130 0
3 128 92 91 0
3 129 130 93 0
3 94 93 130 0
3 91 61 126 0
3 40 64 65 0
3 63 94 64 0
3 129 93 92 0
3 94 63 93 0
3 8 7 20 0
3 60 59 89 0
3 20 38 39 0
3 37 62 38 0
3 92 61 91 0
3 62 37 61 0
3 129 92 128 0
3 91 168 127 0
3 91 127 128 0
3 167 126 125 0
3 168 91 126 0
3 126 167 168 0
3 125 124 166 0
3 123 88 87 0
3 60 37 19 0
3 124 89 88 0
3 125 126 90 0
3 59 60 36 0
3 89 125 90 0
3 89 90 60 0
3 126 61 90 0
3 17 18 6 0
3 19 20 7 0
3 18 36 7 0
3 35 59 36 0
3 18 1 6 0
3 8 2 1 0
3 1 18 7 0
3 17 35 18 0
3 15 16 5 0
3 32 55 33 0
3 34 33 56 0
3 17 16 33 0
3 57 34 56 0
3 58 35 34 0
3 58 59 35 0
3 58 88 59 0
3 87 88 58 0
3 58 34 57 0
3 122 87 86 0
3 57 85 86 0
3 83 84 55 0
3 118 119 84 0
3 55 56 33 0
3 84 85 56 0
3 160 119 159 0
3 120 86 85 0
3 161 120 160 0
3 161 121 120 0
3 121 86 120 0
3 162 121 161 0
3 163 164 122 0
3 163 121 162 0
3 121 122 86 0
3 122 123 87 0
3 163 122 121 0
3 123 124 88 0
3 165 124 123 0
3 125 89 124 0
3 167 125 166 0
3 164 123 122 0
3 165 166 124 0
3 164 165 123 0
