ply
format ascii 1.0
element vertex 169
property double x
property double y
property double z
element face 294
property list uchar int vertex_indices
property uchar red
end_header
0 0 10
2.14285710000000007 0 9.88338189999999983
1.07142859999999995 1.85576870000000005 9.88338189999999983
-1.07142859999999995 1.85576870000000005 9.88338189999999983
-2.14285710000000007 2.62424309999999995e-16 9.88338189999999983
-1.07142859999999995 -1.85576870000000005 9.88338189999999983
1.07142859999999995 -1.85576870000000005 9.88338189999999983
4.28571430000000042 0 9.53352770000000049
3.21428570000000002 1.85576870000000005 9.65014580000000066
2.14285710000000007 3.7115374000000001 9.53352770000000049
7.13714800000000038e-16 3.7115374000000001 9.65014580000000066
-2.14285710000000007 3.7115374000000001 9.53352770000000049
-3.21428570000000002 1.85576870000000005 9.65014580000000066
-4.28571430000000042 5.24848629999999989e-16 9.53352770000000049
-3.21428570000000002 -1.85576870000000005 9.65014580000000066
-2.14285710000000007 -3.7115374000000001 9.53352770000000049
-9.51619739999999918e-16 -3.7115374000000001 9.65014580000000066
2.14285710000000007 -3.7115374000000001 9.53352770000000049
3.21428570000000002 -1.85576870000000005 9.65014580000000066
6.42857140000000005 0 8.95043730000000082
5.35714290000000037 1.85576870000000005 9.18367349999999938
4.28571430000000042 3.7115374000000001 9.18367349999999938
3.21428570000000002 5.56730619999999998 8.95043730000000082
1.07142859999999995 5.56730619999999998 9.18367349999999938
-1.07142859999999995 5.56730619999999998 9.18367349999999938
-3.21428570000000002 5.56730619999999998 8.95043730000000082
-4.28571430000000042 3.7115374000000001 9.18367349999999938
-5.35714290000000037 1.85576870000000005 9.18367349999999938
-6.42857140000000005 7.87272940000000034e-16 8.95043730000000082
-5.35714290000000037 -1.85576870000000005 9.18367349999999938
-4.28571430000000042 -3.7115374000000001 9.18367349999999938
-3.21428570000000002 -5.56730619999999998 8.95043730000000082
-1.07142859999999995 -5.56730619999999998 9.18367349999999938
1.07142859999999995 -5.56730619999999998 9.18367349999999938
3.21428570000000002 -5.56730619999999998 8.95043730000000082
4.28571430000000042 -3.7115374000000001 9.18367349999999938
5.35714290000000037 -1.85576870000000005 9.18367349999999938
8.57142860000000084 0 8.1341108000000002
7.5 1.85576870000000005 8.48396499999999953
6.42857140000000005 3.7115374000000001 8.6005830999999997
5.35714290000000037 5.56730619999999998 8.48396499999999953
4.28571430000000042 7.42307489999999959 8.1341108000000002
2.14285710000000007 7.42307489999999959 8.48396499999999953
1.42742960000000008e-15 7.42307489999999959 8.6005830999999997
-2.14285710000000007 7.42307489999999959 8.48396499999999953
-4.28571430000000042 7.42307489999999959 8.1341108000000002
-5.35714290000000037 5.56730619999999998 8.48396499999999953
-6.42857140000000005 3.7115374000000001 8.6005830999999997
-7.5 1.85576870000000005 8.48396499999999953
-8.57142860000000084 1.04969729999999997e-15 8.1341108000000002
-7.5 -1.85576870000000005 8.48396499999999953
-6.42857140000000005 -3.7115374000000001 8.6005830999999997
-5.35714290000000037 -5.56730619999999998 8.48396499999999953
-4.28571430000000042 -7.42307489999999959 8.1341108000000002
-2.14285710000000007 -7.42307489999999959 8.48396499999999953
-1.90323949999999983e-15 -7.42307489999999959 8.6005830999999997
2.14285710000000007 -7.42307489999999959 8.48396499999999953
4.28571430000000042 -7.42307489999999959 8.1341108000000002
5.35714290000000037 -5.56730619999999998 8.48396499999999953
6.42857140000000005 -3.7115374000000001 8.6005830999999997
7.5 -1.85576870000000005 8.48396499999999953
10.7142859999999995 0 7.08454810000000013
9.64285710000000051 1.85576870000000005 7.55102039999999963
8.57142860000000084 3.7115374000000001 7.78425659999999997
7.5 5.56730619999999998 7.78425659999999997
6.42857140000000005 7.42307489999999959 7.55102039999999963
5.35714290000000037 9.27884360000000008 7.08454810000000013
3.21428570000000002 9.27884360000000008 7.55102039999999963
1.07142859999999995 9.27884360000000008 7.78425659999999997
-1.07142859999999995 9.27884360000000008 7.78425659999999997
-3.21428570000000002 9.27884360000000008 7.55102039999999963
-5.35714290000000037 9.27884360000000008 7.08454810000000013
-6.42857140000000005 7.42307489999999959 7.55102039999999963
-7.5 5.56730619999999998 7.78425659999999997
-8.57142860000000084 3.7115374000000001 7.78425659999999997
-9.64285710000000051 1.85576870000000005 7.55102039999999963
-10.7142859999999995 1.31212160000000002e-15 7.08454810000000013
-9.64285710000000051 -1.85576870000000005 7.55102039999999963
-8.57142860000000084 -3.7115374000000001 7.78425659999999997
-7.5 -5.56730619999999998 7.78425659999999997
-6.42857140000000005 -7.42307489999999959 7.55102039999999963
-5.35714290000000037 -9.27884360000000008 7.08454810000000013
-3.21428570000000002 -9.27884360000000008 7.55102039999999963
-1.07142859999999995 -9.27884360000000008 7.78425659999999997
1.07142859999999995 -9.27884360000000008 7.78425659999999997
3.21428570000000002 -9.27884360000000008 7.55102039999999963
5.35714290000000037 -9.27884360000000008 7.08454810000000013
6.42857140000000005 -7.42307489999999959 7.55102039999999963
7.5 -5.56730619999999998 7.78425659999999997
8.57142860000000084 -3.7115374000000001 7.78425659999999997
9.64285710000000051 -1.85576870000000005 7.55102039999999963
12.8571430000000007 0 5.8017493
11.7857140000000005 1.85576870000000005 6.38483969999999967
10.7142859999999995 3.7115374000000001 6.7346938999999999
9.64285710000000051 5.56730619999999998 6.85131200000000007
8.57142860000000084 7.42307489999999959 6.7346938999999999
7.5 9.27884360000000008 6.38483969999999967
6.42857140000000005 11.1346120000000006 5.8017493
4.28571430000000042 11.1346120000000006 6.38483969999999967
2.14285710000000007 11.1346120000000006 6.7346938999999999
1.90323949999999983e-15 11.1346120000000006 6.85131200000000007
-2.14285710000000007 11.1346120000000006 6.7346938999999999
-4.28571430000000042 11.1346120000000006 6.38483969999999967
-6.42857140000000005 11.1346120000000006 5.8017493
-7.5 9.27884360000000008 6.38483969999999967
-8.57142860000000084 7.42307489999999959 6.7346938999999999
-9.64285710000000051 5.56730619999999998 6.85131200000000007
-10.7142859999999995 3.7115374000000001 6.7346938999999999
-11.7857140000000005 1.85576870000000005 6.38483969999999967
-12.8571430000000007 1.57454590000000006e-15 5.8017493
-11.7857140000000005 -1.85576870000000005 6.38483969999999967
-10.7142859999999995 -3.7115374000000001 6.7346938999999999
-9.64285710000000051 -5.56730619999999998 6.85131200000000007
-8.57142860000000084 -7.42307489999999959 6.7346938999999999
-7.5 -9.27884360000000008 6.38483969999999967
-6.42857140000000005 -11.1346120000000006 5.8017493
-4.28571430000000042 -11.1346120000000006 6.38483969999999967
-2.14285710000000007 -11.1346120000000006 6.7346938999999999
-1.90323949999999983e-15 -11.1346120000000006 6.85131200000000007
2.14285710000000007 -11.1346120000000006 6.7346938999999999
4.28571430000000042 -11.1346120000000006 6.38483969999999967
6.42857140000000005 -11.1346120000000006 5.8017493
7.5 -9.27884360000000008 6.38483969999999967
8.57142860000000084 -7.42307489999999959 6.7346938999999999
9.64285710000000051 -5.56730619999999998 6.85131200000000007
10.7142859999999995 -3.7115374000000001 6.7346938999999999
11.7857140000000005 -1.85576870000000005 6.38483969999999967
15 0 4.28571430000000042
13.9285709999999998 1.85576870000000005 4.98542269999999998
12.8571430000000007 3.7115374000000001 5.45189500000000038
11.7857140000000005 5.56730619999999998 5.68513119999999983
10.7142859999999995 7.42307489999999959 5.68513119999999983
9.64285710000000051 9.27884360000000008 5.45189500000000038
8.57142860000000084 11.1346120000000006 4.98542269999999998
7.5 12.9903809999999993 4.28571430000000042
5.35714290000000037 12.9903809999999993 4.98542269999999998
3.21428570000000002 12.9903809999999993 5.45189500000000038
1.07142859999999995 12.9903809999999993 5.68513119999999983
-1.07142859999999995 12.9903809999999993 5.68513119999999983
-3.21428570000000002 12.9903809999999993 5.45189500000000038
-5.35714290000000037 12.9903809999999993 4.98542269999999998
-7.5 12.9903809999999993 4.28571430000000042
-8.57142860000000084 11.1346120000000006 4.98542269999999998
-9.64285710000000051 9.27884360000000008 5.45189500000000038
-10.7142859999999995 7.42307489999999959 5.68513119999999983
-11.7857140000000005 5.56730619999999998 5.68513119999999983
-12.8571430000000007 3.7115374000000001 5.45189500000000038
-13.9285709999999998 1.85576870000000005 4.98542269999999998
-15 1.83697019999999991e-15 4.28571430000000042
-13.9285709999999998 -1.85576870000000005 4.98542269999999998
-12.8571430000000007 -3.7115374000000001 5.45189500000000038
-11.7857140000000005 -5.56730619999999998 5.68513119999999983
-10.7142859999999995 -7.42307489999999959 5.68513119999999983
-9.64285710000000051 -9.27884360000000008 5.45189500000000038
-8.57142860000000084 -11.1346120000000006 4.98542269999999998
-7.5 -12.9903809999999993 4.28571430000000042
-5.35714290000000037 -12.9903809999999993 4.98542269999999998
-3.21428570000000002 -12.9903809999999993 5.45189500000000038
-1.07142859999999995 -12.9903809999999993 5.68513119999999983
1.07142859999999995 -12.9903809999999993 5.68513119999999983
3.21428570000000002 -12.9903809999999993 5.45189500000000038
5.35714290000000037 -12.9903809999999993 4.98542269999999998
7.5 -12.9903809999999993 4.28571430000000042
8.57142860000000084 -11.1346120000000006 4.98542269999999998
9.64285710000000051 -9.27884360000000008 5.45189500000000038
10.7142859999999995 -7.42307489999999959 5.68513119999999983
11.7857140000000005 -5.56730619999999998 5.68513119999999983
12.8571430000000007 -3.7115374000000001 5.45189500000000038
13.9285709999999998 -1.85576870000000005 4.98542269999999998
3 51 29 50 0
3 109 147 148 0
3 47 74 48 0
3 111 112 78 0
3 23 24 10 0
3 5 14 15 0
3 78 112 79 0
3 116 81 115 0
3 101 138 139 0
3 69 43 68 0
3 67 98 99 0
3 81 53 80 0
3 79 112 113 0
3 4 13 14 0
3 118 117 158 0
3 19 37 38 0
3 120 119 160 0
3 153 114 113 0
3 80 79 113 0
3 157 116 156 0
3 115 81 114 0
3 18 35 36 0
3 82 54 53 0
3 16 17 6 0
3 14 13 29 0
3 83 55 54 0
3 52 79 80 0
3 108 147 109 0
3 111 151 112 0
3 152 113 112 0
3 114 81 80 0
3 75 74 107 0
3 153 154 114 0
3 108 107 146 0
3 45 72 46 0
3 102 139 140 0
3 105 72 104 0
3 103 141 142 0
3 70 69 101 0
3 68 99 100 0
3 46 72 73 0
3 2 10 3 0
3 12 4 3 0
3 21 39 40 0
3 21 40 22 0
3 39 63 64 0
3 19 38 20 0
3 64 94 95 0
3 41 65 66 0
3 65 96 66 0
3 64 40 39 0
3 95 94 131 0
3 95 131 132 0
3 93 63 62 0
3 38 63 39 0
3 38 62 63 0
3 92 62 61 0
3 36 19 7 0
3 90 61 37 0
3 60 90 37 0
3 93 62 92 0
3 7 8 1 0
3 10 9 23 0
3 32 31 54 0
3 84 83 118 0
3 120 85 119 0
3 34 35 17 0
3 89 59 88 0
3 34 17 33 0
3 86 87 57 0
3 57 87 58 0
3 155 115 154 0
3 110 150 111 0
3 112 151 152 0
3 152 153 113 0
3 114 80 113 0
3 32 54 55 0
3 31 52 53 0
3 51 30 29 0
3 115 114 154 0
3 156 115 155 0
3 156 116 115 0
3 117 116 157 0
3 82 53 81 0
3 158 117 157 0
3 83 54 82 0
3 159 119 118 0
3 159 118 158 0
3 119 85 84 0
3 118 83 117 0
3 56 85 57 0
3 56 55 84 0
3 16 6 5 0
3 80 53 52 0
3 81 116 82 0
3 117 82 116 0
3 117 83 82 0
3 15 30 31 0
3 29 13 28 0
3 52 31 30 0
3 53 54 31 0
3 16 15 32 0
3 14 30 15 0
3 31 32 15 0
3 32 33 16 0
3 0 4 5 0
3 11 26 12 0
3 0 5 6 0
3 4 14 5 0
3 50 28 49 0
3 27 26 47 0
3 78 79 51 0
3 30 14 29 0
3 52 51 79 0
3 77 111 78 0
3 78 50 77 0
3 29 28 50 0
3 109 149 110 0
3 110 149 150 0
3 78 51 50 0
3 52 30 51 0
3 111 150 151 0
3 148 149 109 0
3 77 110 111 0
3 76 75 108 0
3 77 76 110 0
3 108 146 147 0
3 110 76 109 0
3 77 50 49 0
3 77 49 76 0
3 48 74 75 0
3 49 75 76 0
3 49 48 75 0
3 28 48 49 0
3 27 13 12 0
3 74 106 107 0
3 76 108 109 0
3 75 107 108 0
3 107 145 146 0
3 106 144 145 0
3 107 106 145 0
3 73 72 105 0
3 105 106 73 0
3 143 104 142 0
3 143 144 105 0
3 104 103 142 0
3 143 105 104 0
3 144 106 105 0
3 74 73 106 0
3 73 47 46 0
3 72 71 104 0
3 140 141 103 0
3 101 102 70 0
3 103 104 71 0
3 71 102 103 0
3 103 102 140 0
3 71 70 102 0
3 72 45 71 0
3 69 100 101 0
3 138 101 100 0
3 139 102 101 0
3 11 24 25 0
3 70 71 45 0
3 45 44 70 0
3 43 24 23 0
3 70 44 69 0
3 25 46 26 0
3 22 23 9 0
3 44 45 25 0
3 74 47 73 0
3 26 11 25 0
3 44 25 24 0
3 45 46 25 0
3 28 27 48 0
3 26 46 47 0
3 48 27 47 0
3 28 13 27 0
3 27 12 26 0
3 13 4 12 0
3 2 3 0 0
3 11 12 3 0
3 1 2 0 0
3 3 4 0 0
3 6 1 0 0
3 20 39 21 0
3 11 10 24 0
3 2 8 9 0
3 36 60 19 0
3 20 21 8 0
3 41 67 42 0
3 68 100 69 0
3 9 21 22 0
3 9 8 21 0
3 3 10 11 0
3 2 9 10 0
3 42 43 23 0
3 43 44 24 0
3 22 42 23 0
3 69 44 43 0
3 40 41 22 0
3 99 137 100 0
3 42 68 43 0
3 42 22 41 0
3 100 137 138 0
3 67 99 68 0
3 98 66 97 0
3 99 136 137 0
3 42 67 68 0
3 66 98 67 0
3 65 41 40 0
3 66 67 41 0
3 99 98 136 0
3 66 96 97 0
3 98 97 135 0
3 98 135 136 0
3 97 96 133 0
3 135 97 134 0
3 97 133 134 0
3 96 132 133 0
3 96 65 95 0
3 96 95 132 0
3 65 64 95 0
3 131 94 130 0
3 128 92 91 0
3 129 130 93 0
3 94 93 130 0
3 91 61 126 0
3 40 64 65 0
3 63 94 64 0
3 129 93 92 0
3 94 63 93 0
3 8 7 20 0
3 60 59 89 0
3 20 38 39 0
3 37 62 38 0
3 92 61 91 0
3 62 37 61 0
3 129 92 128 0
3 91 168 127 0
3 91 127 128 0
3 167 126 125 0
3 168 91 126 0
3 126 167 168 0
3 125 124 166 0
3 123 88 87 0
3 60 37 19 0
3 124 89 88 0
3 125 126 90 0
3 59 60 36 0
3 89 125 90 0
3 89 90 60 0
3 126 61 90 0
3 17 18 6 0
3 19 20 7 0
3 18 36 7 0
3 35 59 36 0
3 18 1 6 0
3 8 2 1 0
3 1 18 7 0
3 17 35 18 0
3 15 16 5 0
3 32 55 33 0
3 34 33 56 0
3 17 16 33 0
3 57 34 56 0
3 58 35 34 0
3 58 59 35 0
3 58 88 59 0
3 87 88 58 0
3 58 34 57 0
3 122 87 86 0
3 57 85 86 0
3 83 84 55 0
3 118 119 84 0
3 55 56 33 0
3 84 85 56 0
3 160 119 159 0
3 120 86 85 0
3 161 120 160 0
3 161 121 120 0
3 121 86 120 0
3 162 121 161 0
3 163 164 122 0
3 163 121 162 0
3 121 122 86 0
3 122 123 87 0
3 163 122 121 0
3 123 124 88 0
3 165 124 123 0
3 125 89 124 0
3 167 125 166 0
3 164 123 122 0
3 165 166 124 0
3 164 165 123 0
