ply
format ascii 1.0
element vertex 7
property double x
property double y
property double z
element face 14
property list uchar int vertex_indices
property uchar red
end_header
-2.32969862510288905 1.7800866259650161 0.362800025226957812
2.32969862510288905 -1.78008662596501588 0.362800025226958311
-2.43633650785732403 -0.0896747030132843265 0.652191342217127823
2.43633650785732403 0.0896747030132852979 0.652191342217127934
-0.38927788985926276 2.45996228879742063 1.04542711446222225
0.389277889859262427 -2.45996228879742018 1.04542711446222292
-8.6575981646511692e-17 1.19289235646636434e-16 4.45237685187647436
3 0 1 2 0
3 1 0 3 0
3 2 4 0 0
3 3 5 1 0
3 5 0 4 0
3 4 1 5 0
3 2 3 4 0
3 3 2 5 0
3 6 0 5 0
3 6 1 4 0
3 0 6 3 0
3 1 6 2 0
3 2 6 5 0
3 3 6 4 0
