ply
format ascii 1.0
element vertex 144
property double x
property double y
property double z
element face 288
property list uchar int vertex_indices
property uchar red
end_header
0.0792200490832328796 0.0318897664546966553 -0.0947684422135353088
0.0717973262071609497 0.0447747595608234406 -0.0947684422135353088
0.0569518767297267914 0.0447747595608234406 -0.0947684422135353088
0.0495291538536548615 0.0318897664546966553 -0.0947684422135353088
0.0569518767297267914 0.0190046485513448715 -0.0947684422135353088
0.0717973262071609497 0.0190046485513448715 -0.0947684422135353088
0.0766205564141273499 0.0318897664546966553 -0.11451372504234314
0.06945066899061203 0.0447747595608234406 -0.112592555582523346
0.0551111288368701935 0.0447747595608234406 -0.108750224113464355
0.0479413606226444244 0.0318897664546966553 -0.106829062104225159
0.0691469758749008179 0.00611965451389551163 -0.143660038709640503
0.06945066899061203 0.0190046485513448715 -0.112592555582523346
0.0969231054186820984 0.0318897664546966553 -0.191986128687858582
0.0625709220767021179 0.0447747595608234406 -0.129201903939247131
0.0583534687757492065 0.0576598756015300751 -0.169717952609062195
0.0454969219863414764 0.0318897664546966553 -0.162295237183570862
0.0583534687757492065 0.00611965451389551163 -0.169717952609062195
0.0840665623545646667 0.00611965451389551163 -0.184563398361206055
0.0726753920316696167 0.0318897664546966553 -0.223586365580558777
0.0621780678629875183 0.0576598756015300751 -0.213089033961296082
0.0411834083497524261 0.0576598756015300751 -0.192094370722770691
0.0306862033903598785 0.0318897664546966553 -0.181597054004669189
0.0411834083497524261 0.00611965451389551163 -0.192094370722770691
0.0621780678629875183 0.00611965451389551163 -0.213089033961296082
-0.0134159009903669357 0.0318897664546966553 -0.427381247282028198
-0.0252921599894762039 0.0731218233704566956 -0.406810849905014038
-0.0490449219942092896 0.0731218233704566956 -0.365669935941696167
-0.060921303927898407 0.0318897664546966553 -0.345099538564682007
0.0188071131706237793 0.00611965451389551163 -0.209264427423477173
0.0336525589227676392 0.00611965451389551163 -0.23497752845287323
-0.0722946077585220337 0.0318897664546966553 -0.451769620180130005
-0.0784422233700752258 0.0731218233704566956 -0.428826332092285156
-0.090737566351890564 0.0731218233704566956 -0.382939636707305908
-0.0968851745128631592 0.0318897664546966553 -0.359996229410171509
-0.090737566351890564 -0.00934241153299808502 -0.382939636707305908
-0.0784422233700752258 -0.00934241153299808502 -0.428826332092285156
-0.135479196906089783 0.0318897664546966553 -0.460088133811950684
-0.135479196906089783 0.0731218233704566956 -0.436335384845733643
-0.135479196906089783 0.0731218233704566956 -0.388829976320266724
-0.135479196906089783 0.0318897664546966553 -0.365077316761016846
-0.135479196906089783 -0.00934241153299808502 -0.388829976320266724
-0.135479196906089783 -0.00934241153299808502 -0.436335384845733643
-0.198663786053657532 0.0318897664546966553 -0.451769620180130005
-0.192516177892684937 0.0731218233704566956 -0.428826332092285156
-0.180220827460289001 0.0731218233704566956 -0.382939636707305908
-0.174073219299316406 0.0318897664546966553 -0.359996229410171509
-0.180220827460289001 -0.00934241153299808502 -0.382939636707305908
-0.192516177892684937 -0.00934241153299808502 -0.428826332092285156
-0.257542610168457031 0.0318897664546966553 -0.427381396293640137
-0.245666235685348511 0.0731218233704566956 -0.406810849905014038
-0.221913471817970276 0.0731218233704566956 -0.365669935941696167
-0.210037082433700562 0.0318897664546966553 -0.345099538564682007
-0.221913471817970276 -0.00934241153299808502 -0.365669935941696167
-0.245666235685348511 -0.00934241153299808502 -0.406810849905014038
-0.308102905750274658 0.0318897664546966553 -0.388585031032562256
-0.291307240724563599 0.0731218233704566956 -0.371789336204528809
-0.257715761661529541 0.0731218233704566956 -0.338197857141494751
-0.240920081734657288 0.0318897664546966553 -0.321402192115783691
-0.257715761661529541 -0.00934241153299808502 -0.338197857141494751
-0.291307240724563599 -0.00934241153299808502 -0.371789336204528809
-0.346899151802062988 0.0318897664546966553 -0.338024705648422241
-0.326328754425048828 0.0731218233704566956 -0.326148450374603271
-0.285187721252441406 0.0731218233704566956 -0.30239570140838623
-0.264617323875427246 0.0318897664546966553 -0.29051932692527771
-0.285187721252441406 -0.00934241153299808502 -0.30239570140838623
-0.326328754425048828 -0.00934241153299808502 -0.326148450374603271
-0.371287494897842407 0.0318897664546966553 -0.279146015644073486
-0.348344206809997559 0.0731218233704566956 -0.272998273372650146
-0.30245739221572876 0.0731218233704566956 -0.260703057050704956
-0.279514104127883911 0.0318897664546966553 -0.254555433988571167
-0.30245739221572876 -0.00934241153299808502 -0.260703057050704956
-0.348344206809997559 -0.00934241153299808502 -0.272998273372650146
-0.379605919122695923 0.0318897664546966553 -0.215961426496505737
-0.355853259563446045 0.0731218233704566956 -0.215961426496505737
-0.308347731828689575 0.0731218233704566956 -0.215961426496505737
-0.284595102071762085 0.0318897664546966553 -0.215961426496505737
-0.308347731828689575 -0.00934241153299808502 -0.215961426496505737
-0.355853259563446045 -0.00934241153299808502 -0.215961426496505737
-0.371287494897842407 0.0318897664546966553 -0.152776718139648438
-0.348344206809997559 0.0731218233704566956 -0.158924445509910583
-0.302457511425018311 0.0731218233704566956 -0.171219661831855774
-0.279514104127883911 0.0318897664546966553 -0.177367404103279114
-0.302457511425018311 -0.00934241153299808502 -0.171219661831855774
-0.348344206809997559 -0.00934241153299808502 -0.158924445509910583
-0.346899151802062988 0.0318897664546966553 -0.0938980057835578918
-0.154495298862457275 0.0576598756015300751 -0.0468296706676483154
-0.285187840461730957 0.0731218233704566956 -0.129527151584625244
-0.115925781428813934 0.0318897664546966553 -0.0690978392958641052
-0.285187840461730957 -0.00934241153299808502 -0.129527151584625244
-0.154495298862457275 0.00611965451389551163 -0.0468296706676483154
-0.143104135990142822 0.0318897664546966553 -0.00780683336779475212
-0.132606923580169678 0.0576598756015300751 -0.018304038792848587
-0.111612267792224884 0.0576598756015300751 -0.0392986945807933807
-0.101114943623542786 0.0318897664546966553 -0.0497960224747657776
-0.111612267792224884 0.00611965451389551163 -0.0392986945807933807
-0.132606923580169678 0.00611965451389551163 -0.018304038792848587
-0.111504018306732178 0.0318897664546966553 0.0164408758282661438
-0.104081295430660248 0.0576598756015300751 0.00358433043584227562
-0.0892358496785163879 0.0576598756015300751 -0.0221286378800868988
-0.081813126802444458 0.0318897664546966553 -0.0349851846694946289
-0.0892358496785163879 0.00611965451389551163 -0.0221286378800868988
-0.104081295430660248 0.00611965451389551163 0.00358433043584227562
-0.0747048109769821167 0.0318897664546966553 0.0316836088895797729
-0.0708624795079231262 0.0576598756015300751 0.0173440705984830856
-0.063177935779094696 0.0576598756015300751 -0.0113351298496127129
-0.0593357235193252563 0.0318897664546966553 -0.025674792006611824
-0.063177935779094696 0.00611965451389551163 -0.0113351298496127129
-0.0708624795079231262 0.00611965451389551163 0.0173440705984830856
0.00293039483949542046 0.0318897664546966553 -0.0184789132326841354
0.00293039483949542046 0.0447747595608234406 -0.0259016361087560654
0.00293039483949542046 0.0447747595608234406 -0.0407470837235450745
-0.0352143682539463043 0.0318897664546966553 -0.0224990788847208023
0.00293039483949542046 0.0190046485513448715 -0.0407470837235450745
0.00293039483949542046 0.0190046485513448715 -0.0259016361087560654
0.0226755551993846893 0.0318897664546966553 -0.0210784003138542175
0.0207545105367898941 0.0447747595608234406 -0.0282481703907251358
0.0169121772050857544 0.0447747595608234406 -0.0425877086818218231
0.0149910114705562592 0.0318897664546966553 -0.0497575998306274414
0.0169121772050857544 0.0190046485513448715 -0.0425877086818218231
0.0207545105367898941 0.0190046485513448715 -0.0282481703907251358
0.0410752817988395691 0.0318897664546966553 -0.0286997668445110321
0.0373638607561588287 0.0447747595608234406 -0.0351280383765697479
0.0299411360174417496 0.0447747595608234406 -0.047984585165977478
0.0262298360466957092 0.0318897664546966553 -0.0544128604233264923
0.0299411360174417496 0.0190046485513448715 -0.047984585165977478
0.0373638607561588287 0.0190046485513448715 -0.0351280383765697479
0.0568752773106098175 0.0318897664546966553 -0.0408235602080821991
0.0516266748309135437 0.0447747595608234406 -0.0460721626877784729
0.0411293469369411469 0.0447747595608234406 -0.0565694905817508698
0.0358806215226650238 0.0318897664546966553 -0.0618182159960269928
0.0411293469369411469 0.0190046485513448715 -0.0565694905817508698
0.0516266748309135437 0.0190046485513448715 -0.0460721626877784729
0.0689991936087608337 0.0318897664546966553 -0.0566236786544322968
0.0625709220767021179 0.0447747595608234406 -0.0603349767625331879
0.0497143752872943878 0.0447747595608234406 -0.0677577033638954163
0.0432861000299453735 0.0318897664546966553 -0.0714691206812858582
0.0497143752872943878 0.0190046485513448715 -0.0677577033638954163
0.0625709220767021179 0.0190046485513448715 -0.0603349767625331879
0.0766205564141273499 0.0318897664546966553 -0.0750232860445976257
0.06945066899061203 0.0447747595608234406 -0.0769444480538368225
0.0551111288368701935 0.0447747595608234406 -0.0807866603136062622
0.0479413606226444244 0.0318897664546966553 -0.082707822322845459
0.0551111288368701935 0.0190046485513448715 -0.0807866603136062622
0.06945066899061203 0.0190046485513448715 -0.0769444480538368225
3 2 140 141 0
3 8 2 7 0
3 9 2 3 0
3 16 17 23 0
3 4 5 143 0
3 1 2 139 0
3 8 9 15 0
3 16 9 10 0
3 26 19 20 0
3 19 20 14 0
3 11 12 6 0
3 24 18 19 0
3 20 14 15 0
3 114 108 109 0
3 27 21 22 0
3 17 18 12 0
3 11 5 6 0
3 113 107 108 0
3 32 33 27 0
3 27 28 22 0
3 0 138 143 0
3 10 11 4 0
3 26 27 20 0
3 18 29 23 0
3 1 6 7 0
3 24 35 30 0
3 32 38 31 0
3 1 138 139 0
3 9 10 4 0
3 40 45 39 0
3 32 26 31 0
3 137 131 132 0
3 34 27 28 0
3 29 22 23 0
3 18 19 12 0
3 12 13 6 0
3 139 140 134 0
3 24 25 30 0
3 35 28 29 0
3 40 34 39 0
3 16 17 10 0
3 37 30 31 0
3 8 13 7 0
3 41 36 30 0
3 43 36 37 0
3 32 26 27 0
3 32 33 39 0
3 44 37 38 0
3 59 53 54 0
3 128 133 134 0
3 45 38 39 0
3 137 132 143 0
3 128 129 123 0
3 136 137 131 0
3 16 9 15 0
3 40 41 35 0
3 136 141 142 0
3 138 139 132 0
3 56 50 55 0
3 64 70 63 0
3 49 43 44 0
3 122 123 116 0
3 51 44 45 0
3 51 45 46 0
3 90 84 85 0
3 48 42 47 0
3 48 53 54 0
3 132 133 126 0
3 40 41 47 0
3 42 36 47 0
3 140 141 134 0
3 128 134 135 0
3 48 49 42 0
3 52 46 47 0
3 115 116 109 0
3 49 54 55 0
3 49 50 55 0
3 56 57 50 0
3 129 130 123 0
3 136 142 143 0
3 120 121 126 0
3 57 50 51 0
3 59 60 54 0
3 56 57 63 0
3 58 52 53 0
3 116 117 110 0
3 60 54 55 0
3 113 114 119 0
3 58 51 52 0
3 120 114 115 0
3 66 60 61 0
3 68 69 63 0
3 67 61 62 0
3 121 122 115 0
3 75 68 69 0
3 2 139 140 0
3 64 58 59 0
3 109 110 103 0
3 105 110 111 0
3 56 61 55 0
3 72 66 71 0
3 117 118 111 0
3 64 58 63 0
3 89 82 83 0
3 73 74 79 0
3 73 66 67 0
3 106 107 100 0
3 107 101 102 0
3 130 124 125 0
3 77 70 71 0
3 104 105 98 0
3 76 69 70 0
3 108 109 102 0
3 96 102 103 0
3 64 65 70 0
3 97 98 103 0
3 65 66 60 0
3 88 81 82 0
3 72 77 78 0
3 112 105 111 0
3 74 67 68 0
3 98 99 93 0
3 83 76 77 0
3 97 98 91 0
3 80 86 79 0
3 100 101 95 0
3 73 78 79 0
3 123 124 117 0
3 92 93 87 0
3 90 84 95 0
3 99 100 94 0
3 82 75 76 0
3 106 99 100 0
3 96 90 101 0
3 81 74 75 0
3 80 74 79 0
3 89 84 78 0
3 84 85 79 0
3 88 94 95 0
3 97 90 91 0
3 91 92 85 0
3 81 86 87 0
3 96 97 90 0
3 93 94 87 0
3 89 83 78 0
3 88 94 87 0
3 80 81 86 0
3 90 91 85 0
3 98 91 92 0
3 92 85 86 0
3 21 22 15 0
3 80 81 74 0
3 88 89 95 0
3 90 101 95 0
3 81 82 75 0
3 3 4 141 0
3 56 61 62 0
3 98 92 93 0
3 105 106 99 0
3 99 93 94 0
3 92 86 87 0
3 85 86 79 0
3 112 106 107 0
3 89 84 95 0
3 88 81 87 0
3 82 83 76 0
3 74 75 68 0
3 100 94 95 0
3 73 74 67 0
3 112 105 106 0
3 124 117 118 0
3 83 77 78 0
3 72 73 78 0
3 96 101 102 0
3 104 98 103 0
3 65 70 71 0
3 112 118 111 0
3 76 77 70 0
3 64 65 59 0
3 72 73 66 0
3 96 97 103 0
3 114 115 109 0
3 105 98 99 0
3 107 100 101 0
3 65 66 71 0
3 107 108 102 0
3 109 102 103 0
3 75 76 69 0
3 117 110 111 0
3 112 113 107 0
3 122 115 116 0
3 113 114 108 0
3 88 89 82 0
3 72 77 71 0
3 57 58 63 0
3 104 110 103 0
3 104 105 110 0
3 66 67 61 0
3 67 68 62 0
3 68 62 63 0
3 116 109 110 0
3 136 129 130 0
3 124 118 119 0
3 56 62 63 0
3 52 53 47 0
3 112 113 119 0
3 120 131 125 0
3 123 116 117 0
3 60 61 55 0
3 120 121 115 0
3 40 46 47 0
3 130 123 124 0
3 65 59 60 0
3 51 52 46 0
3 58 59 53 0
3 48 49 54 0
3 130 131 125 0
3 1 2 7 0
3 121 126 127 0
3 17 18 23 0
3 128 129 135 0
3 124 125 119 0
3 24 35 29 0
3 48 53 47 0
3 120 114 125 0
3 50 51 44 0
3 114 125 119 0
3 57 58 51 0
3 128 122 123 0
3 128 122 127 0
3 120 131 126 0
3 141 134 135 0
3 133 126 127 0
3 49 50 44 0
3 69 70 63 0
3 128 133 127 0
3 136 129 135 0
3 40 34 35 0
3 136 130 131 0
3 131 132 126 0
3 24 25 19 0
3 43 44 37 0
3 44 45 38 0
3 36 37 30 0
3 42 43 36 0
3 16 22 23 0
3 136 141 135 0
3 25 30 31 0
3 34 35 28 0
3 139 132 133 0
3 136 137 143 0
3 8 9 2 0
3 112 118 119 0
3 139 133 134 0
3 41 35 30 0
3 41 36 47 0
3 33 34 39 0
3 32 38 39 0
3 4 142 143 0
3 28 29 22 0
3 33 34 27 0
3 138 132 143 0
3 37 38 31 0
3 40 45 46 0
3 25 26 19 0
3 8 13 14 0
3 24 18 29 0
3 84 78 79 0
3 25 26 31 0
3 49 42 43 0
3 20 21 15 0
3 17 11 12 0
3 19 13 14 0
3 0 1 138 0
3 13 6 7 0
3 0 1 6 0
3 19 12 13 0
3 17 10 11 0
3 9 3 4 0
3 27 20 21 0
3 11 4 5 0
3 16 22 15 0
3 0 5 6 0
3 0 5 143 0
3 121 122 127 0
3 8 14 15 0
3 2 3 141 0
3 4 141 142 0
