ply
format ascii 1.0
element vertex 144
property float x
property float y
property float z
element face 288
property list uchar int vertex_indices
property uchar red
end_header
0.434764713048934937 0.180078983306884766 0.0805160775780677795
0.461938977241516113 0.191333800554275513 0
0.5 0 0
0.470596611499786377 0 0.0805160775780677795
0.366077214479446411 0.151627719402313232 0.123165830969810486
0.396249085664749146 0 0.123165830969810486
0.288169354200363159 0.1193561851978302 0.107895679771900177
0.311913073062896729 0 0.107895679771900177
0.237652063369750977 0.0984373465180397034 0.0418706610798835754
0.257240027189254761 0 0.0418706610798835754
0.238312363624572754 0.0987079218029975891 -0.0438401997089385986
0.257954239845275879 0 -0.0438401997089385986
0.289846688508987427 0.120048753917217255 -0.108934707939624786
0.313731193542480469 0 -0.108934707939624786
0.36799284815788269 0.15242844820022583 -0.122797742486000061
0.398316144943237305 0 -0.122797742486000061
0.436009407043457031 0.180598139762878418 -0.0789036378264427185
0.471938461065292358 0 -0.0789036378264427185
0.332756012678146362 0.332745373249053955 0.0805160775780677795
0.353545427322387695 0.353545427322387695 0
0.28018265962600708 0.280172020196914673 0.123165830969810486
0.220553159713745117 0.22054252028465271 0.107895679771900177
0.181886106729507446 0.181886106729507446 0.0418706610798835754
0.182394623756408691 0.182383984327316284 -0.0438401997089385986
0.221841126680374146 0.221830129623413086 -0.108934707939624786
0.281643688678741455 0.281643688678741455 -0.122797742486000061
0.333697885274887085 0.333697885274887085 -0.0789036378264427185
0.180089622735977173 0.434754073619842529 0.0805160775780677795
0.191333800554275513 0.461927980184555054 0
0.151627719402313232 0.366055577993392944 0.123165830969810486
0.1193561851978302 0.288147717714309692 0.107895679771900177
0.0984263494610786438 0.237641081213951111 0.0418706610798835754
0.0987079218029975891 0.238290727138519287 -0.0438401997089385986
0.120059743523597717 0.28983604907989502 -0.108934707939624786
0.152417808771133423 0.367981880903244019 -0.122797742486000061
0.180587500333786011 0.435987770557403564 -0.0789036378264427185
0 0.47057497501373291 0.0805160775780677795
0 0.499978363513946533 0
0 0.396216809749603271 0.123165830969810486
0 0.311880439519882202 0.107895679771900177
0 0.257207393646240234 0.0418706610798835754
0 0.257921606302261353 -0.0438401997089385986
0 0.313709557056427002 -0.108934707939624786
0 0.398294508457183838 -0.122797742486000061
0 0.471906185150146484 -0.0789036378264427185
-0.180078983306884766 0.434754073619842529 0.0805160775780677795
-0.191322818398475647 0.461917370557785034 0
-0.151616737246513367 0.366055577993392944 0.123165830969810486
-0.119345545768737793 0.288137078285217285 0.107895679771900177
-0.0984263494610786438 0.237619444727897644 0.0418706610798835754
-0.0986969247460365295 0.238279744982719421 -0.0438401997089385986
-0.120048753917217255 0.28982505202293396 -0.108934707939624786
-0.152417808771133423 0.367971241474151611 -0.122797742486000061
-0.180587500333786011 0.435976773500442505 -0.0789036378264427185
-0.332734376192092896 0.332745373249053955 0.0805160775780677795
-0.353523790836334229 0.353534430265426636 0
-0.280150413513183594 0.280161052942276001 0.123165830969810486
-0.220520883798599243 0.22053152322769165 0.107895679771900177
-0.181864470243453979 0.181864470243453979 0.0418706610798835754
-0.182362362742424011 0.182362362742424011 -0.0438401997089385986
-0.221819490194320679 0.221819490194320679 -0.108934707939624786
-0.281622052192687988 0.281632691621780396 -0.122797742486000061
-0.333675891160964966 0.333675891160964966 -0.0789036378264427185
-0.434732437133789062 0.180078983306884766 0.0805160775780677795
-0.461895734071731567 0.191333800554275513 0
-0.366033971309661865 0.151616737246513367 0.123165830969810486
-0.288126081228256226 0.119345545768737793 0.107895679771900177
-0.237608805298805237 0.0984157174825668335 0.0418706610798835754
-0.238258108496665955 0.0986862853169441223 -0.0438401997089385986
-0.289814412593841553 0.120038114488124847 -0.108934707939624786
-0.367960244417190552 0.152417808771133423 -0.122797742486000061
-0.435966163873672485 0.180576503276824951 -0.0789036378264427185
-0.470553338527679443 0 0.0805160775780677795
-0.499946087598800659 0 0
-0.396184176206588745 0 0.123165830969810486
-0.311858803033828735 0 0.107895679771900177
-0.257175147533416748 0 0.0418706610798835754
-0.257878333330154419 0 -0.0438401997089385986
-0.313687920570373535 0 -0.108934707939624786
-0.398272871971130371 0 -0.122797742486000061
-0.471873581409454346 0 -0.0789036378264427185
-0.434732437133789062 -0.180067986249923706 0.0805160775780677795
-0.461884737014770508 -0.19131217896938324 0
-0.366023331880569458 -0.151606097817420959 0.123165830969810486
-0.288115084171295166 -0.11933455616235733 0.107895679771900177
-0.237597808241844177 -0.0984157174825668335 0.0418706610798835754
-0.238247111439704895 -0.0986752957105636597 -0.0438401997089385986
-0.289803415536880493 -0.120038114488124847 -0.108934707939624786
-0.367949604988098145 -0.152406811714172363 -0.122797742486000061
-0.435944527387619019 -0.180576503276824951 -0.0789036378264427185
-0.332723736763000488 -0.332723736763000488 0.0805160775780677795
-0.353512793779373169 -0.353502154350280762 0
-0.280139416456222534 -0.280128777027130127 0.123165830969810486
-0.220509901642799377 -0.22049926221370697 0.107895679771900177
-0.181842848658561707 -0.181842848658561707 0.0418706610798835754
-0.182340726256370544 -0.182329729199409485 -0.0438401997089385986
-0.221797868609428406 -0.221797868609428406 -0.108934707939624786
-0.281611055135726929 -0.281611055135726929 -0.122797742486000061
-0.333654254674911499 -0.333654254674911499 -0.0789036378264427185
-0.180067986249923706 -0.434721440076828003 0.0805160775780677795
-0.191322818398475647 -0.461874097585678101 0
-0.151606097817420959 -0.366001337766647339 0.123165830969810486
-0.11933455616235733 -0.288093447685241699 0.107895679771900177
-0.0984047204256057739 -0.23758716881275177 0.0418706610798835754
-0.0986752957105636597 -0.238225489854812622 -0.0438401997089385986
-0.120027117431163788 -0.289792776107788086 -0.108934707939624786
-0.152406811714172363 -0.367938607931137085 -0.122797742486000061
-0.180565863847732544 -0.435933530330657959 -0.0789036378264427185
0 -0.470531702041625977 0.0805160775780677795
0 -0.49992448091506958 0
0 -0.396151542663574219 0.123165830969810486
0 -0.311826169490814209 0.107895679771900177
0 -0.257153511047363281 0.0418706610798835754
0 -0.257846057415008545 -0.0438401997089385986
0 -0.313655287027359009 -0.108934707939624786
0 -0.398251235485076904 -0.122797742486000061
0 -0.471840947866439819 -0.0789036378264427185
0.180056989192962646 -0.434710800647735596 0.0805160775780677795
0.19131217896938324 -0.461863100528717041 0
0.1515951007604599 -0.365990698337554932 0.123165830969810486
0.119323916733264923 -0.288082808256149292 0.107895679771900177
0.0984047204256057739 -0.237576186656951904 0.0418706610798835754
0.0986646562814712524 -0.238214850425720215 -0.0438401997089385986
0.120027117431163788 -0.289771139621734619 -0.108934707939624786
0.15239618718624115 -0.367927968502044678 -0.122797742486000061
0.180554881691932678 -0.435922890901565552 -0.0789036378264427185
0.332702130079269409 -0.332712739706039429 0.0805160775780677795
0.353491157293319702 -0.353491157293319702 0
0.280106782913208008 -0.280117779970169067 0.123165830969810486
0.220477625727653503 -0.220488265156745911 0.107895679771900177
0.18182121217250824 -0.181831851601600647 0.0418706610798835754
0.182308107614517212 -0.182319089770317078 -0.0438401997089385986
0.221776232123374939 -0.221776232123374939 -0.108934707939624786
0.28158944845199585 -0.281600415706634521 -0.122797742486000061
0.333621978759765625 -0.333643615245819092 -0.0789036378264427185
0.434699803590774536 -0.180056989192962646 0.0805160775780677795
0.461852461099624634 -0.19130118191242218 0
0.365979701280593872 -0.1515951007604599 0.123165830969810486
0.288061201572418213 -0.119323916733264923 0.107895679771900177
0.237554550170898438 -0.0984047204256057739 0.0418706610798835754
0.238193213939666748 -0.0986646562814712524 -0.0438401997089385986
0.289760172367095947 -0.120016485452651978 -0.108934707939624786
0.367916971445083618 -0.15239618718624115 -0.122797742486000061
0.435901254415512085 -0.180565863847732544 -0.0789036378264427185
3 0 1 2 0
3 0 2 3 0
3 0 3 4 0
3 3 4 5 0
3 4 5 6 0
3 5 6 7 0
3 8 6 7 0
3 8 9 7 0
3 8 9 10 0
3 9 10 11 0
3 10 11 12 0
3 11 12 13 0
3 12 13 14 0
3 13 14 15 0
3 16 14 15 0
3 16 17 15 0
3 16 1 2 0
3 16 17 2 0
3 1 18 19 0
3 0 1 18 0
3 0 18 20 0
3 0 20 4 0
3 4 20 21 0
3 4 21 6 0
3 21 22 6 0
3 8 22 6 0
3 8 22 23 0
3 8 10 23 0
3 24 10 23 0
3 24 10 12 0
3 24 25 12 0
3 25 12 14 0
3 25 26 14 0
3 16 26 14 0
3 1 26 19 0
3 16 1 26 0
3 19 27 28 0
3 19 18 27 0
3 18 27 29 0
3 18 20 29 0
3 20 29 30 0
3 20 21 30 0
3 21 30 31 0
3 21 22 31 0
3 32 22 31 0
3 32 22 23 0
3 32 33 23 0
3 24 33 23 0
3 24 33 34 0
3 24 25 34 0
3 25 34 35 0
3 25 26 35 0
3 19 35 28 0
3 19 26 35 0
3 28 36 37 0
3 27 36 28 0
3 27 36 38 0
3 27 29 38 0
3 29 38 39 0
3 29 30 39 0
3 40 30 39 0
3 40 30 31 0
3 40 41 31 0
3 32 41 31 0
3 32 41 42 0
3 32 33 42 0
3 33 42 43 0
3 33 34 43 0
3 34 43 44 0
3 34 35 44 0
3 37 44 28 0
3 35 44 28 0
3 37 45 46 0
3 37 36 45 0
3 36 45 47 0
3 36 38 47 0
3 48 38 47 0
3 48 38 39 0
3 48 49 39 0
3 40 49 39 0
3 40 49 50 0
3 40 41 50 0
3 41 50 51 0
3 41 42 51 0
3 42 51 52 0
3 42 43 52 0
3 43 52 53 0
3 43 44 53 0
3 37 53 46 0
3 37 44 53 0
3 46 54 55 0
3 46 45 54 0
3 56 45 54 0
3 56 45 47 0
3 56 57 47 0
3 48 57 47 0
3 48 57 58 0
3 48 49 58 0
3 49 58 59 0
3 49 50 59 0
3 50 59 60 0
3 50 51 60 0
3 51 60 61 0
3 51 52 61 0
3 52 61 62 0
3 52 53 62 0
3 46 62 55 0
3 46 53 62 0
3 64 55 63 0
3 55 54 63 0
3 65 54 63 0
3 56 65 54 0
3 56 65 66 0
3 56 57 66 0
3 57 66 67 0
3 57 58 67 0
3 58 67 68 0
3 58 59 68 0
3 59 68 69 0
3 59 60 69 0
3 60 69 70 0
3 60 61 70 0
3 61 70 71 0
3 61 62 71 0
3 64 55 71 0
3 55 62 71 0
3 72 73 64 0
3 72 64 63 0
3 72 74 63 0
3 65 74 63 0
3 65 74 75 0
3 65 66 75 0
3 66 75 76 0
3 66 67 76 0
3 67 76 77 0
3 67 68 77 0
3 68 77 78 0
3 68 69 78 0
3 69 78 79 0
3 69 70 79 0
3 80 70 79 0
3 80 70 71 0
3 80 73 64 0
3 80 64 71 0
3 73 81 82 0
3 73 81 72 0
3 72 81 83 0
3 72 74 83 0
3 74 83 84 0
3 74 75 84 0
3 75 84 85 0
3 75 76 85 0
3 76 85 86 0
3 76 77 86 0
3 77 86 87 0
3 77 78 87 0
3 88 78 87 0
3 88 78 79 0
3 88 89 79 0
3 80 89 79 0
3 73 89 82 0
3 80 89 73 0
3 90 91 82 0
3 81 90 82 0
3 81 90 92 0
3 81 83 92 0
3 83 92 93 0
3 83 84 93 0
3 84 93 94 0
3 84 85 94 0
3 85 94 95 0
3 85 86 95 0
3 96 86 95 0
3 96 86 87 0
3 96 97 87 0
3 88 97 87 0
3 88 97 98 0
3 88 89 98 0
3 98 91 82 0
3 89 98 82 0
3 91 99 100 0
3 91 99 90 0
3 90 99 101 0
3 90 92 101 0
3 92 101 102 0
3 92 93 102 0
3 93 102 103 0
3 93 94 103 0
3 104 94 103 0
3 104 94 95 0
3 104 105 95 0
3 96 105 95 0
3 96 105 106 0
3 96 97 106 0
3 97 106 107 0
3 97 98 107 0
3 91 107 100 0
3 91 98 107 0
3 100 108 109 0
3 100 99 108 0
3 99 108 110 0
3 99 101 110 0
3 101 110 111 0
3 101 102 111 0
3 112 102 111 0
3 112 102 103 0
3 112 113 103 0
3 104 113 103 0
3 104 113 114 0
3 104 105 114 0
3 105 114 115 0
3 105 106 115 0
3 106 115 116 0
3 106 107 116 0
3 100 116 109 0
3 100 107 116 0
3 109 117 118 0
3 109 108 117 0
3 108 117 119 0
3 108 110 119 0
3 120 110 119 0
3 120 110 111 0
3 120 121 111 0
3 112 121 111 0
3 112 121 122 0
3 112 113 122 0
3 113 122 123 0
3 113 114 123 0
3 114 123 124 0
3 114 115 124 0
3 115 124 125 0
3 115 116 125 0
3 109 125 118 0
3 109 116 125 0
3 118 126 127 0
3 118 117 126 0
3 128 117 126 0
3 128 117 119 0
3 128 129 119 0
3 120 129 119 0
3 120 129 130 0
3 120 121 130 0
3 121 130 131 0
3 121 122 131 0
3 122 131 132 0
3 122 123 132 0
3 123 132 133 0
3 123 124 133 0
3 124 133 134 0
3 124 125 134 0
3 118 134 127 0
3 118 125 134 0
3 136 127 135 0
3 127 126 135 0
3 137 126 135 0
3 128 137 126 0
3 128 137 138 0
3 128 129 138 0
3 129 138 139 0
3 129 130 139 0
3 130 139 140 0
3 130 131 140 0
3 131 140 141 0
3 131 132 141 0
3 132 141 142 0
3 132 133 142 0
3 133 142 143 0
3 133 134 143 0
3 136 127 143 0
3 127 134 143 0
3 136 2 135 0
3 2 3 135 0
3 136 2 143 0
3 17 2 143 0
3 137 3 135 0
3 137 3 5 0
3 137 138 5 0
3 138 5 7 0
3 138 139 7 0
3 9 139 7 0
3 9 139 140 0
3 9 11 140 0
3 11 140 141 0
3 13 11 141 0
3 13 141 142 0
3 13 142 15 0
3 15 142 143 0
3 17 15 143 0
