ply
format ascii 1.0
element vertex 16
property double x
property double y
property double z
element face 32
property list uchar int vertex_indices
property uchar red
end_header
1 0 0
1 0 1
0.707106781186547573 0.707106781186547462 0
0.707106781186547573 0.707106781186547462 1
6.12323399573676604e-17 1 0
6.12323399573676604e-17 1 1
-0.707106781186547462 0.707106781186547573 0
-0.707106781186547462 0.707106781186547573 1
-1 1.22464679914735321e-16 0
-1 1.22464679914735321e-16 1
-0.707106781186547684 -0.707106781186547462 0
-0.707106781186547684 -0.707106781186547462 1
-1.83697019872102969e-16 -1 0
-1.83697019872102969e-16 -1 1
0.707106781186547462 -0.707106781186547684 0
0.707106781186547462 -0.707106781186547684 1
3 0 2 1 0
3 2 3 1 0
3 1 3 4 0
3 3 6 4 0
3 2 4 3 0
3 4 5 3 0
3 3 5 6 0
3 5 8 6 0
3 4 6 5 0
3 6 7 5 0
3 5 7 8 0
3 7 10 8 0
3 6 8 7 0
3 8 9 7 0
3 7 9 10 0
3 9 12 10 0
3 8 10 9 0
3 10 11 9 0
3 9 11 12 0
3 11 14 12 0
3 10 12 11 0
3 12 13 11 0
3 11 13 14 0
3 13 0 14 0
3 12 14 13 0
3 14 15 13 0
3 13 15 0 0
3 15 2 0 0
3 14 0 15 0
3 0 1 15 0
3 15 1 2 0
3 1 4 2 0
