ply
format ascii 1.0
element vertex 8
property double x
property double y
property double z
element face 16
property list uchar int vertex_indices
property uchar red
end_header
1 0 0
0.267498828624587348 0.963558185417192958 1
6.12323399573676604e-17 1 0
-0.963558185417192847 0.267498828624587626 1
-1 1.22464679914735321e-16 0
-0.267498828624587681 -0.963558185417192847 1
-1.83697019872102969e-16 -1 0
0.963558185417192847 -0.267498828624587737 1
3 0 2 1 0
3 2 3 1 0
3 1 3 0 0
3 3 2 0 0
3 2 4 3 0
3 4 5 3 0
3 3 5 2 0
3 5 4 2 0
3 4 6 5 0
3 6 7 5 0
3 5 7 4 0
3 7 6 4 0
3 6 0 7 0
3 0 1 7 0
3 7 1 6 0
3 1 0 6 0
