ply
format ascii 1.0
element vertex 12
property double x
property double y
property double z
element face 24
property list uchar int vertex_indices
property uchar red
end_header
1 0 0
0.540302305868139765 0.841470984807896505 1
0.500000000000000111 0.866025403784438597 0
-0.45858409645707765 0.888651015009067402 1
-0.499999999999999778 0.866025403784438819 0
-0.998886402325217637 0.0471800302011709527 1
-1 1.22464679914735321e-16 0
-0.540302305868139876 -0.841470984807896394 1
-0.500000000000000444 -0.866025403784438375 0
0.458584096457077539 -0.888651015009067402 1
0.5 -0.866025403784438597 0
0.998886402325217637 -0.0471800302011706266 1
3 0 2 1 0
3 2 3 1 0
3 1 3 0 0
3 3 2 0 0
3 2 4 3 0
3 4 5 3 0
3 3 5 2 0
3 5 4 2 0
3 4 6 5 0
3 6 7 5 0
3 5 7 4 0
3 7 6 4 0
3 6 8 7 0
3 8 9 7 0
3 7 9 6 0
3 9 8 6 0
3 8 10 9 0
3 10 11 9 0
3 9 11 8 0
3 11 10 8 0
3 10 0 11 0
3 0 1 11 0
3 11 1 10 0
3 1 0 10 0
