ply
format ascii 1.0
element vertex 10
property double x
property double y
property double z
element face 20
property list uchar int vertex_indices
property uchar red
end_header
1 0 0
0.877582561890372759 0.479425538604203005 1
0.309016994374947451 0.951056516295153531 0
-0.184772856976611666 0.982781253038895075 1
-0.80901699437494734 0.587785252292473248 0
-0.991778467700341837 0.127966679280045098 1
-0.809016994374947451 -0.587785252292473026 0
-0.428179945372489434 -0.903693495816370262 1
0.309016994374947229 -0.951056516295153642 0
0.727148708159070067 -0.686479975106772833 1
3 0 2 1 0
3 2 3 1 0
3 1 3 4 0
3 3 6 4 0
3 2 4 3 0
3 4 5 3 0
3 3 5 6 0
3 5 8 6 0
3 4 6 5 0
3 6 7 5 0
3 5 7 8 0
3 7 0 8 0
3 6 8 7 0
3 8 9 7 0
3 7 9 0 0
3 9 2 0 0
3 8 0 9 0
3 0 1 9 0
3 9 1 2 0
3 1 4 2 0
